<?xml version='1.0' encoding='utf-8'?>
<svg xmlns="http://www.w3.org/2000/svg" width="1920" height="1080" viewBox="0 0 1920 1080" data-theme="dark" data-semantic-intent="taxonomy_list" data-relation-type="taxonomy" data-site-visual-identity="signal-cobalt">
  <style>
        @font-face {
            font-family: 'Inter';
            src: url('assets/fonts/Inter-Regular.ttf') format('truetype');
            font-weight: 400;
            font-style: normal;
            font-display: swap;
        }
        @font-face {
            font-family: 'Inter';
            src: url('assets/fonts/Inter-Bold.ttf') format('truetype');
            font-weight: 600;
            font-style: normal;
            font-display: swap;
        }
        @font-face {
            font-family: 'Inter';
            src: url('assets/fonts/Inter-Bold.ttf') format('truetype');
            font-weight: 800;
            font-style: normal;
            font-display: swap;
        }
        
:root {
    --background: #0f172a;
    --panel: #1e293b;
    --primary-text: #f1f5f9;
    --muted-text: #94a3b8;
    --inverse-text: #0f172a;
    --border: #334155;
    --shadow-color: #000000;
    --icon-pad-bg: #1e293b;
    --art-glow: #7dd3fc;
    --art-glow-opacity: 0.18;
    --art-sheen: #ffffff;
    --art-sheen-opacity: 0.18;
    --art-shadow: #000000;
    --art-shadow-opacity: 0.28;
    --art-muted-line: #64748b;
    --art-panel-tint: #1e293b;
    --semantic-risk: #f87171;
    --semantic-warning: #fb923c;
    --semantic-uncertain: #fbbf24;
    --semantic-evidence: #60a5fa;
    --semantic-claim: #c084fc;
    --semantic-positive: #4ade80;
    --semantic-outcome: #22d3ee;
    --font-family: 'Inter', 'Segoe UI', 'Kalam', Roboto, Helvetica, Arial, sans-serif;
    --radius-xl: 16px;
    --font-family-headline: 'Segoe UI Variable Display', 'Aptos Display', 'Inter', 'Segoe UI', Helvetica, Arial, sans-serif;
    --font-family-body: 'Segoe UI Variable Text', 'Aptos', 'Inter', 'Segoe UI', Helvetica, Arial, sans-serif;
    --font-heading: var(--font-family-headline);
    --font-body: var(--font-family-body);
    --font-size-h1: 64px;
    --font-size-h2: 42px;
    --font-size-h3: 29px;
    --font-size-body: 21px;
    --font-size-caption: 17px;
    --secondary-text: var(--muted-text);
    --panel-border: var(--border);
    --font-weight-normal: 400;
    --font-weight-medium: 500;
    --font-weight-semibold: 600;
    --font-weight-bold: 700;
    --spacing-gutter-pct: 0.07;
    --spacing-top-pct: 0.15;
    --spacing-bottom-pct: 0.07;
    --spacing-title-y-pct: 0.055;
    --accent-1: #93c5fd;
    --accent-2: #60a5fa;
    --accent-3: #818cf8;
    --accent-4: #a78bfa;
    --accent-5: #38bdf8;
    --accent-6: #fb923c;
}
:root[data-theme="dark"] {
    --background: #0f172a;
    --panel: #1e293b;
    --primary-text: #f1f5f9;
    --muted-text: #94a3b8;
    --inverse-text: #0f172a;
    --border: #334155;
    --shadow-color: #000000;
    --icon-pad-bg: #1e293b;
    --art-glow: #7dd3fc;
    --art-glow-opacity: 0.18;
    --art-sheen: #ffffff;
    --art-sheen-opacity: 0.18;
    --art-shadow: #000000;
    --art-shadow-opacity: 0.28;
    --art-muted-line: #64748b;
    --art-panel-tint: #1e293b;
    --semantic-risk: #f87171;
    --semantic-warning: #fb923c;
    --semantic-uncertain: #fbbf24;
    --semantic-evidence: #60a5fa;
    --semantic-claim: #c084fc;
    --semantic-positive: #4ade80;
    --semantic-outcome: #22d3ee;
    --accent-1: #93c5fd;
    --accent-2: #60a5fa;
    --accent-3: #818cf8;
    --accent-4: #a78bfa;
    --accent-5: #38bdf8;
    --accent-6: #fb923c;
}
:root[data-theme="light"] {
    --background: #f8fafc;
    --panel: #ffffff;
    --primary-text: #0f172a;
    --muted-text: #64748b;
    --inverse-text: #ffffff;
    --border: #e2e8f0;
    --shadow-color: #000000;
    --icon-pad-bg: #1e293b;
    --art-glow: #0891b2;
    --art-glow-opacity: 0.10;
    --art-sheen: #ffffff;
    --art-sheen-opacity: 0.34;
    --art-shadow: #0f172a;
    --art-shadow-opacity: 0.14;
    --art-muted-line: #94a3b8;
    --art-panel-tint: #f1f5f9;
    --semantic-risk: #b91c1c;
    --semantic-warning: #c2410c;
    --semantic-uncertain: #a16207;
    --semantic-evidence: #1d4ed8;
    --semantic-claim: #6d28d9;
    --semantic-positive: #15803d;
    --semantic-outcome: #0e7490;
    --accent-1: #1d4ed8;
    --accent-2: #2563eb;
    --accent-3: #4f46e5;
    --accent-4: #6d28d9;
    --accent-5: #0369a1;
    --accent-6: #c2410c;
}</style>
  <rect x="0" y="0" width="1.92E+3" height="1.08E+3" fill="#252a34" stroke="none" id="programmatic_background"/>
  <line id="HEADER_DECOR" x1="960.0" x2="1080.0" y1="135.0" y2="135.0" stroke="var(--accent-1)" stroke-width="6" stroke-linecap="round"/>
  <defs>
    <pattern id="svg89aac188-napkin-hatch" patternUnits="userSpaceOnUse" width="12" height="12">
      <path d="M -3 12 L 12 -3 M 0 15 L 15 0" fill="none" stroke="var(--primary-text)" stroke-width="1" stroke-opacity="0.05"/>
    </pattern>
    <filter id="svg89aac188-shadow" x="-30%" y="-30%" width="160%" height="160%">
      <feDropShadow dx="0" dy="2" stdDeviation="3" flood-color="#000000" flood-opacity="0.08"/>
      <feDropShadow dx="0" dy="6" stdDeviation="10" flood-color="#000000" flood-opacity="0.12"/>
    </filter>
    <radialGradient id="svg89aac188-universal-edge-vignette" cx="50%" cy="50%" r="72%">
      <stop offset="0%" stop-color="var(--background)" stop-opacity="0"/>
      <stop offset="72%" stop-color="var(--background)" stop-opacity="0.12"/>
      <stop offset="100%" stop-color="var(--primary-text)" stop-opacity="0.08"/>
    </radialGradient>
    <linearGradient id="svg89aac188-universal-surface-sheen" x1="0%" y1="0%" x2="100%" y2="100%">
      <stop offset="0%" stop-color="var(--art-sheen)" stop-opacity="var(--art-sheen-opacity)"/>
      <stop offset="46%" stop-color="var(--art-sheen)" stop-opacity="0.035"/>
      <stop offset="100%" stop-color="var(--art-panel-tint)" stop-opacity="0.14"/>
    </linearGradient>
    <radialGradient id="svg89aac188-universal-icon-aura" cx="50%" cy="42%" r="64%">
      <stop offset="0%" stop-color="var(--art-glow)" stop-opacity="var(--art-glow-opacity)"/>
      <stop offset="100%" stop-color="var(--background)" stop-opacity="0"/>
    </radialGradient>
    <linearGradient id="svg89aac188-fact-card-sheen" x1="0%" y1="0%" x2="100%" y2="100%">
      <stop offset="0%" stop-color="var(--inverse-text)" stop-opacity="0.18"/>
      <stop offset="54%" stop-color="var(--inverse-text)" stop-opacity="0.04"/>
      <stop offset="100%" stop-color="var(--background)" stop-opacity="0.14"/>
    </linearGradient>
    <radialGradient id="svg89aac188-fact-icon-glow" cx="50%" cy="42%" r="62%">
      <stop offset="0%" stop-color="var(--inverse-text)" stop-opacity="0.22"/>
      <stop offset="100%" stop-color="var(--background)" stop-opacity="0"/>
    </radialGradient>
    <filter id="svg89aac188-text-glow" x="-20%" y="-20%" width="140%" height="140%">
      <feDropShadow dx="0" dy="0" stdDeviation="2" flood-color="#000000" flood-opacity="0.4"/>
    </filter>
    <marker id="svg89aac188-arrowhead" markerWidth="10" markerHeight="7" refX="9" refY="3.5" orient="auto" markerUnits="strokeWidth">
      <polygon points="0 0, 10 3.5, 0 7" fill="var(--muted-text)" opacity="0.6"/>
    </marker>
  </defs>
  <rect width="100%" height="100%" fill="var(--background)" id="CANVAS_BG"/>
  <rect width="100%" height="100%" fill="url(#svg89aac188-napkin-hatch)"/>
  <rect id="UNIVERSAL_EDGE_VIGNETTE" width="100%" height="100%" fill="url(#svg89aac188-universal-edge-vignette)" opacity="0.62"/>
  <line x1="960" y1="178" x2="960" y2="986" stroke="var(--muted-text)" stroke-width="5" stroke-opacity="0.10" stroke-linecap="round"/>
  <path d="M 360 178 C 620 152 1300 152 1560 178" fill="none" stroke="var(--primary-text)" stroke-width="2" stroke-opacity="0.12" stroke-linecap="round"/>
  <text id="TITLE" x="960.0" y="59" font-size="72" font-weight="800" fill="#f1f5f9" style="font-size: 69px; font-family: 'Segoe UI Variable Display', 'Aptos Display', 'Inter', 'Segoe UI', Helvetica, Arial, sans-serif; font-weight: 800; font-kerning: normal; font-feature-settings: &quot;kern&quot; 1, &quot;liga&quot; 1; letter-spacing:-1.2px;" text-anchor="middle" data-final-font-size="69">
    <tspan x="960.0" dy="70.47px">Key Participants in the Investigation</tspan>
  </text>
  <rect id="TITLE_FRAME" x="134" y="59" width="1652" height="103" fill="none"/>
  <g transform="translate(960.0, 220.0)">
    <rect id="ITEM_1_BG" x="-600" y="-64" width="1200" height="184" rx="18" fill="var(--accent-1)" stroke="var(--accent-1)" filter="url(#svg89aac188-shadow)" stroke-width="3" fill-opacity="0.4"/>
    <g transform="translate(-480.0, 0.0)">
      <circle r="45" fill="var(--background)" opacity="0.3"/>
      <circle id="ITEM_1_PAD" cx="0" cy="0" r="42" fill="var(--icon-pad-bg)" stroke="var(--accent-1)" opacity="1" fill-opacity="0.9" stroke-width="2" stroke-opacity="0.72" data-badge-layer="pad"/>
      <circle id="ITEM_1_PAD_INNER" cx="0" cy="0" r="32.76" fill="var(--accent-1)" fill-opacity="0.12" stroke="none" data-badge-layer="tint"/>
      <circle cx="0" cy="0" r="34" fill="none" stroke="var(--accent-1)" stroke-width="3" stroke-dasharray="6 4" display="none" data-suppressed-decoration="redundant-badge-ring"/>
      <g id="ITEM_1_ICON" transform="translate(-34, -34)" data-icon-size="68" stroke-linecap="round" stroke-linejoin="round" data-badge-treatment="clean">
        <g transform="translate(-4.857142857142857,-5.160714285714283) scale(2.4285714285714284)">
          <path d="M4.71839 18.0233C5.11525 17.458 5.8952 17.3215 6.46045 17.7184L18.5318 26.1936L17.0946 28.2406L5.02328 19.7653C4.45803 19.3685 4.32152 18.5885 4.71839 18.0233Z" fill="#5092FF"/>
          <path d="M18.5013 2.80347C18.8302 2.3598 19.4615 2.25982 19.9114 2.58017L21.5841 3.77124C22.034 4.09158 22.1321 4.71094 21.8032 5.15461L13.1102 16.8809C12.4436 17.7801 11.1641 17.9827 10.2523 17.3335C9.34053 16.6842 9.14176 15.429 9.80835 14.5298L18.5013 2.80347Z" fill="#636363"/>
          <path d="M18.0472 3.66594C16.8384 3.31432 15.3804 3.86071 14.5971 4.91739L11.7749 8.7243L11.9999 10.0001L10.6024 10.306L10.3989 10.5805C9.07399 12.3677 9.47824 14.8692 11.3018 16.1677C13.1254 17.4662 15.6778 17.07 17.0027 15.2828L17.1623 15.0675L16.9999 13.5001H18.3242L18.4883 13.2787C21.992 13.9302 23.8684 16.851 23.963 19.8545C24.0149 21.5041 23.5209 23.1307 22.4806 24.3899C21.4537 25.6329 19.8112 26.6185 17.3793 26.8486C16.5451 26.9276 15.9304 27.6956 16.0062 28.564C16.082 29.4325 16.8197 30.0725 17.6539 29.9935C20.7829 29.6974 23.1847 28.3804 24.7802 26.4491C26.3624 24.5339 27.069 22.1145 26.9946 19.751C26.8719 15.8564 24.6058 11.9837 20.5048 10.5586L21.2008 9.61967C21.9842 8.56299 22.0639 7.03517 21.3491 6.01708L18.0472 3.66594Z" fill="#BEBEBE"/>
          <path d="M2 29.2C2 27.4327 3.43269 26 5.2 26H26.8C28.5673 26 30 27.4327 30 29.2C30 29.6418 29.6418 30 29.2 30H2.8C2.35817 30 2 29.6418 2 29.2Z" fill="#9B9B9B"/>
          <path d="M11.7757 8.70947L18.3343 13.4746L17.1588 15.0927L10.6001 10.3275L11.7757 8.70947Z" fill="#D3D3D3"/>
        </g>
      </g>
    </g>
    <g transform="translate(-330, -34)">
      <text id="ITEM_1_HEAD" text-anchor="start" font-weight="bold" font-size="29" fill="var(--primary-text)" x="0.0" y="-10.0" data-bg-id="ITEM_1_BG" fill-opacity="1.0" stroke="none" style="font-size: 31px; font-family: 'Segoe UI Variable Display', 'Aptos Display', 'Inter', 'Segoe UI', Helvetica, Arial, sans-serif; font-weight: 700; font-kerning: normal; font-feature-settings: &quot;kern&quot; 1, &quot;liga&quot; 1; letter-spacing:-0.4px;" data-final-font-size="31">
        <tspan x="0.0" dy="33.30px">Meteor Specialists</tspan>
      </text>
      <rect id="ITEM_1_HEAD_FRAME" x="0" y="-10" width="846" height="42" fill="none"/>
      <text id="ITEM_1_BODY" text-anchor="start" font-size="21" fill="var(--primary-text)" x="0.0" y="30.0" data-bg-id="ITEM_1_BG" style="font-size: 23px; font-family: 'Segoe UI Variable Text', 'Aptos', 'Inter', 'Segoe UI', Helvetica, Arial, sans-serif; font-weight: 400; font-kerning: normal; font-feature-settings: &quot;kern&quot; 1, &quot;liga&quot; 1;" data-final-font-size="23">
        <tspan x="0.0" dy="40.47px">Dr Lincoln LaPaz analyzes atmospheric and astronomical data</tspan>
      </text>
      <rect id="ITEM_1_BODY_FRAME" x="0" y="30" width="846" height="114" fill="none"/>
    </g>
  </g>
  <g transform="translate(960.0, 390.0)">
    <rect id="ITEM_2_BG" x="-600" y="-64" width="1200" height="184" rx="18" fill="var(--accent-2)" stroke="var(--accent-2)" filter="url(#svg89aac188-shadow)" stroke-width="3" fill-opacity="0.4"/>
    <g transform="translate(-480.0, 0.0)">
      <circle r="45" fill="var(--background)" opacity="0.3"/>
      <circle id="ITEM_2_PAD" cx="0" cy="0" r="42" fill="var(--icon-pad-bg)" stroke="var(--accent-2)" opacity="1" fill-opacity="0.9" stroke-width="2" stroke-opacity="0.72" data-badge-layer="pad"/>
      <circle id="ITEM_2_PAD_INNER" cx="0" cy="0" r="32.76" fill="var(--accent-2)" fill-opacity="0.12" stroke="none" data-badge-layer="tint"/>
      <circle cx="0" cy="0" r="34" fill="none" stroke="var(--accent-1)" stroke-width="3" stroke-dasharray="6 4" display="none" data-suppressed-decoration="redundant-badge-ring"/>
      <g id="ITEM_2_ICON" transform="translate(-34, -34)" data-icon-size="68" stroke-linecap="round" stroke-linejoin="round" data-badge-treatment="clean">
        <g transform="translate(-4.857142857142857,-4.857142857142857) scale(2.4285714285714284)">
          <path d="M2 6C2 3.79086 3.79086 2 6 2H26C28.2091 2 30 3.79086 30 6V26C30 28.2091 28.2091 30 26 30H6C3.79086 30 2 28.2091 2 26V6Z" fill="#8D65C5"/>
          <path d="M16 17.75C16.9665 17.75 17.75 16.9665 17.75 16C17.75 15.0335 16.9665 14.25 16 14.25C15.0335 14.25 14.25 15.0335 14.25 16C14.25 16.9665 15.0335 17.75 16 17.75Z" fill="white"/>
          <path d="M16.003 28.0041C17.707 28.0036 19.2199 26.1291 20.1727 23.229C23.1608 23.8532 25.5405 23.4796 26.3924 22.004C27.2445 20.5281 26.3778 18.28 24.3425 16.0039C26.3777 13.7279 27.2444 11.4798 26.3924 10.004C25.5401 8.52787 23.1592 8.15453 20.1698 8.77948C19.2156 5.87841 17.7014 4.0036 15.997 4.00403C14.2931 4.00446 12.7802 5.87887 11.8274 8.77887C8.83936 8.15477 6.45971 8.52835 5.60777 10.004C4.75569 11.4798 5.62239 13.7279 7.65759 16.0039C5.62235 18.28 4.75563 20.5281 5.60772 22.004C6.45992 23.48 8.84078 23.8534 11.8301 23.2285C12.7843 26.1296 14.2986 28.0045 16.003 28.0041ZM16.0027 26.5041C15.7804 26.5041 15.4486 26.407 15.0145 25.9855C14.5734 25.5571 14.1075 24.8643 13.6836 23.8912C13.5434 23.5694 13.4111 23.2244 13.2878 22.8583C14.1629 22.5986 15.0735 22.2635 16.0001 21.8552C16.9276 22.2639 17.8391 22.5992 18.715 22.8591C18.5921 23.2244 18.4601 23.5688 18.3204 23.8901C17.897 24.8633 17.4314 25.5564 16.9905 25.985C16.5567 26.4068 16.225 26.504 16.0027 26.5041ZM19.1258 21.4163C18.6978 21.2889 18.2582 21.1414 17.8098 20.9736C18.077 20.8308 18.3445 20.6822 18.6119 20.5278C18.8796 20.3733 19.1424 20.2157 19.4 20.0554C19.3212 20.5276 19.2293 20.982 19.1258 21.4163ZM23.9893 17.9395C24.6202 18.7929 24.9875 19.5427 25.1381 20.1389C25.2862 20.7256 25.2045 21.0615 25.0934 21.254C24.9822 21.4465 24.7322 21.6852 24.1501 21.8502C23.5585 22.0179 22.7255 22.0748 21.6709 21.955C21.3228 21.9155 20.9586 21.8577 20.5807 21.7815C20.7934 20.8933 20.9584 19.9365 21.068 18.9292C21.885 18.3306 22.6306 17.7094 23.2932 17.0813C23.5484 17.3707 23.7808 17.6575 23.9893 17.9395ZM23.9892 14.0685C23.7808 14.3504 23.5484 14.6372 23.2932 14.9266C22.6303 14.2981 21.8842 13.6766 21.0667 13.0778C20.9567 12.071 20.7913 11.1147 20.5784 10.2269C20.9571 10.1505 21.3221 10.0925 21.6708 10.0529C22.7254 9.93317 23.5584 9.99005 24.15 10.1577C24.7321 10.3227 24.9822 10.5614 25.0933 10.754C25.2045 10.9465 25.2862 11.2824 25.138 11.869C24.9874 12.4652 24.6202 13.215 23.9892 14.0685ZM22.2493 16.0039C21.9253 16.3106 21.578 16.6172 21.2089 16.9214C21.2188 16.6182 21.2238 16.3118 21.2237 16.0027C21.2236 15.6943 21.2185 15.3887 21.2085 15.0861C21.5778 15.3904 21.9252 15.6972 22.2493 16.0039ZM19.1235 10.5923C19.2271 11.026 19.3191 11.4798 19.398 11.9512C19.141 11.7914 18.8789 11.6342 18.612 11.4801C18.3446 11.3257 18.077 11.1771 17.8098 11.0343C18.2574 10.8668 18.6963 10.7195 19.1235 10.5923ZM13.2851 9.14884C13.408 8.78354 13.5399 8.43922 13.6796 8.11804C14.103 7.14477 14.5686 6.45171 15.0095 6.0231C15.4433 5.60134 15.775 5.50408 15.9973 5.50403C16.2196 5.50397 16.5514 5.60106 16.9855 6.0226C17.4266 6.45099 17.8925 7.14381 18.3164 8.11686C18.4566 8.43863 18.5889 8.78362 18.7122 9.14968C17.8372 9.4094 16.9266 9.74447 16.0001 10.1527C15.0725 9.74402 14.161 9.40867 13.2851 9.14884ZM10.3293 10.0529C10.6773 10.0924 11.0415 10.1502 11.4193 10.2264C11.2067 11.1146 11.0416 12.0715 10.932 13.0788C10.115 13.6773 9.36945 14.2985 8.70694 14.9266C8.45178 14.6372 8.21935 14.3504 8.01091 14.0685C7.37994 13.215 7.01271 12.4652 6.86212 11.869C6.71394 11.2824 6.79566 10.9465 6.90681 10.754C7.01796 10.5614 7.26799 10.3227 7.85013 10.1577C8.44172 9.99005 9.2747 9.93317 10.3293 10.0529ZM8.01085 17.9395C8.21931 17.6575 8.45175 17.3707 8.70694 17.0813C9.3698 17.7097 10.1158 18.3312 10.9333 18.93C11.0433 19.9368 11.2087 20.8932 11.4215 21.7811C11.0429 21.8575 10.678 21.9155 10.3292 21.955C9.27465 22.0748 8.44167 22.0179 7.85008 21.8502C7.26793 21.6852 7.0179 21.4465 6.90675 21.254C6.7956 21.0615 6.71388 20.7256 6.86206 20.1389C7.01265 19.5427 7.37988 18.7929 8.01085 17.9395ZM9.75079 16.0039C10.0748 15.6973 10.422 15.3907 10.7911 15.0866C10.7812 15.3898 10.7762 15.6962 10.7763 16.0054C10.7764 16.3136 10.7815 16.6192 10.7915 16.9216C10.4223 16.6174 10.0749 16.3107 9.75079 16.0039ZM12.2763 16.005C12.2761 15.2831 12.3052 14.5807 12.3603 13.9032C12.9193 13.5166 13.513 13.14 14.1382 12.7791C14.7631 12.4183 15.3859 12.0925 16.0001 11.8017C16.6142 12.0925 17.237 12.4183 17.862 12.7791C18.4867 13.1398 19.08 13.5161 19.6388 13.9024C19.6941 14.5795 19.7235 15.2816 19.7237 16.0031C19.7239 16.7249 19.6948 17.4274 19.6397 18.1048C19.0807 18.4913 18.487 18.8679 17.8619 19.2288C17.237 19.5896 16.6142 19.9154 16.0001 20.2062C15.386 19.9154 14.7632 19.5896 14.1382 19.2288C13.5134 18.8681 12.92 18.4917 12.3612 18.1054C12.3059 17.4283 12.2765 16.7263 12.2763 16.005ZM12.8765 21.4157C12.7729 20.982 12.6809 20.5281 12.602 20.0566C12.859 20.2164 13.1212 20.3737 13.3882 20.5278C13.6556 20.6822 13.9231 20.8308 14.1904 20.9736C13.7427 21.1411 13.3038 21.2884 12.8765 21.4157ZM14.1904 11.0343C13.9231 11.1771 13.6555 11.3257 13.3882 11.4801C13.1205 11.6347 12.8577 11.7923 12.6 11.9525C12.6788 11.4804 12.7707 11.0259 12.8743 10.5916C13.3023 10.719 13.7419 10.8665 14.1904 11.0343Z" fill="white"/>
        </g>
      </g>
    </g>
    <g transform="translate(-330, -34)">
      <text id="ITEM_2_HEAD" text-anchor="start" font-weight="bold" font-size="29" fill="var(--primary-text)" x="0.0" y="-10.0" data-bg-id="ITEM_2_BG" fill-opacity="1.0" stroke="none" style="font-size: 31px; font-family: 'Segoe UI Variable Display', 'Aptos Display', 'Inter', 'Segoe UI', Helvetica, Arial, sans-serif; font-weight: 700; font-kerning: normal; font-feature-settings: &quot;kern&quot; 1, &quot;liga&quot; 1; letter-spacing:-0.4px;" data-final-font-size="31">
        <tspan x="0.0" dy="33.30px">Nuclear Scientists</tspan>
      </text>
      <rect id="ITEM_2_HEAD_FRAME" x="0" y="-10" width="846" height="42" fill="none"/>
      <text id="ITEM_2_BODY" text-anchor="start" font-size="21" fill="var(--primary-text)" x="0.0" y="30.0" data-bg-id="ITEM_2_BG" style="font-size: 23px; font-family: 'Segoe UI Variable Text', 'Aptos', 'Inter', 'Segoe UI', Helvetica, Arial, sans-serif; font-weight: 400; font-kerning: normal; font-feature-settings: &quot;kern&quot; 1, &quot;liga&quot; 1;" data-final-font-size="23">
        <tspan x="0.0" dy="40.47px">Edward Teller joins discussions on aerial phenomena risks</tspan>
      </text>
      <rect id="ITEM_2_BODY_FRAME" x="0" y="30" width="846" height="114" fill="none"/>
    </g>
  </g>
  <g transform="translate(960.0, 560.0)">
    <rect id="ITEM_3_BG" x="-600" y="-64" width="1200" height="184" rx="18" fill="var(--accent-3)" stroke="var(--accent-3)" filter="url(#svg89aac188-shadow)" stroke-width="3" fill-opacity="0.4"/>
    <g transform="translate(-480.0, 0.0)">
      <circle r="45" fill="var(--background)" opacity="0.3"/>
      <circle id="ITEM_3_PAD" cx="0" cy="0" r="42" fill="var(--icon-pad-bg)" stroke="var(--accent-3)" opacity="1" fill-opacity="0.9" stroke-width="2" stroke-opacity="0.72" data-badge-layer="pad"/>
      <circle id="ITEM_3_PAD_INNER" cx="0" cy="0" r="32.76" fill="var(--accent-3)" fill-opacity="0.12" stroke="none" data-badge-layer="tint"/>
      <circle cx="0" cy="0" r="34" fill="none" stroke="var(--accent-2)" stroke-width="3" stroke-dasharray="6 4" display="none" data-suppressed-decoration="redundant-badge-ring"/>
      <g id="ITEM_3_ICON" transform="translate(-34, -34)" data-icon-size="68" stroke-linecap="round" stroke-linejoin="round" data-badge-treatment="clean">
        <g transform="translate(-6.296296296296296,-6.296296296296294) scale(3.3580246913580245)" vector-effect="non-scaling-stroke" stroke-width="2.53" stroke-linecap="round" stroke-linejoin="round" stroke-opacity="1.0">
          <path d="M12 4a9 9 0 0 1 5.656 16h-11.312a9 9 0 0 1 5.656 -16z" vector-effect="non-scaling-stroke" fill="none" stroke="#f1f5f9"/>
          <path d="M20 9h-8.8a1 1 0 0 0 -.968 1.246c.507 2 1.596 3.418 3.268 4.254c2 1 4.333 1.5 7 1.5" vector-effect="non-scaling-stroke" fill="none" stroke="#f1f5f9"/>
        </g>
      </g>
    </g>
    <g transform="translate(-330, -34)">
      <text id="ITEM_3_HEAD" text-anchor="start" font-weight="bold" font-size="29" fill="var(--primary-text)" x="0.0" y="-10.0" data-bg-id="ITEM_3_BG" fill-opacity="1.0" stroke="none" style="font-size: 31px; font-family: 'Segoe UI Variable Display', 'Aptos Display', 'Inter', 'Segoe UI', Helvetica, Arial, sans-serif; font-weight: 700; font-kerning: normal; font-feature-settings: &quot;kern&quot; 1, &quot;liga&quot; 1; letter-spacing:-0.4px;" data-final-font-size="31">
        <tspan x="0.0" dy="33.30px">Military Personnel</tspan>
      </text>
      <rect id="ITEM_3_HEAD_FRAME" x="0" y="-10" width="846" height="42" fill="none"/>
      <text id="ITEM_3_BODY" text-anchor="start" font-size="21" fill="var(--primary-text)" x="0.0" y="30.0" data-bg-id="ITEM_3_BG" style="font-size: 23px; font-family: 'Segoe UI Variable Text', 'Aptos', 'Inter', 'Segoe UI', Helvetica, Arial, sans-serif; font-weight: 400; font-kerning: normal; font-feature-settings: &quot;kern&quot; 1, &quot;liga&quot; 1;" data-final-font-size="23">
        <tspan x="0.0" dy="40.47px">Trained observers provide flight path and location estimates</tspan>
      </text>
      <rect id="ITEM_3_BODY_FRAME" x="0" y="30" width="846" height="114" fill="none"/>
    </g>
  </g>
  <g transform="translate(960.0, 730.0)">
    <rect id="ITEM_4_BG" x="-600" y="-64" width="1200" height="184" rx="18" fill="var(--accent-1)" stroke="var(--accent-4)" filter="url(#svg89aac188-shadow)" stroke-width="3" fill-opacity="0.4"/>
    <g transform="translate(-480.0, 0.0)">
      <circle r="45" fill="var(--background)" opacity="0.3"/>
      <circle id="ITEM_4_PAD" cx="0" cy="0" r="42" fill="var(--icon-pad-bg)" stroke="var(--accent-1)" opacity="1" fill-opacity="0.9" stroke-width="2" stroke-opacity="0.72" data-badge-layer="pad"/>
      <circle id="ITEM_4_PAD_INNER" cx="0" cy="0" r="32.76" fill="var(--accent-1)" fill-opacity="0.12" stroke="none" data-badge-layer="tint"/>
      <circle cx="0" cy="0" r="34" fill="none" stroke="var(--accent-3)" stroke-width="3" stroke-dasharray="6 4" display="none" data-suppressed-decoration="redundant-badge-ring"/>
      <g id="ITEM_4_ICON" transform="translate(-34, -34)" data-icon-size="68" stroke-linecap="round" stroke-linejoin="round" data-badge-treatment="clean">
        <g transform="translate(-4.857142857142858,-4.857142857142857) scale(1.9428571428571428)">
          <path d="m12.02,20.47c-.72-.004-1.388-.213-1.942-.567l.925,3.714c.184.738.847,1.256,1.607,1.256h3.768c-1.939-.888-3.496-2.454-4.358-4.402Z" fill="#ff9000"/>
          <path d="m23.622,24.872h3.727c.815,0,1.509-.593,1.636-1.398l.531-3.362c-.464.219-.981.355-1.536.358-.862,1.948-2.42,3.514-4.358,4.402Z" fill="#ff9000"/>
          <path d="m11.214,15.775c.084.152.288.186.404.057l2.049-2.292c-.007-.003-.014-.006-.021-.009-.364-.167-.719-.349-1.067-.543-.07-.039-.144-.073-.214-.113-.776-.448-1.511-.959-2.195-1.531-.102.346-.191.696-.254,1.055-.128.728-.177,1.445-.154,2.144.002.055.046.104.101.105,0,0,0,0,.001,0,.223.002.794.116,1.35,1.126Z" fill="#ff9000"/>
          <path d="m27.422,12.987c-.349.194-.703.376-1.068.543-.147.067-.298.127-.447.189-.299.125-.6.244-.908.35-.094.032-.189.062-.284.092,1.389.541,2.786.885,4.015.804.102-.007.219-.042.334-.092.297-.167.547-.465.777-.424.008.001.017-.004.025-.002.015-.986-.128-1.936-.378-2.843-.588.463-1.202.894-1.853,1.269-.069.04-.142.073-.212.112Z" fill="#ff9000"/>
          <path d="m20,30.64c1.16,0,2.09-.93,2.09-2.09v-3.13c.534-.131,1.042-.323,1.532-.548,1.939-.888,3.496-2.454,4.358-4.402.555-.003,1.071-.139,1.536-.358,1.143-.539,1.934-1.639,1.934-2.912,0-1.157-.644-2.167-1.609-2.75-.23-.041-.48.256-.777.424-.116.05-.233.085-.334.092-1.229.082-2.626-.263-4.015-.804-.081.026-.16.053-.241.078-.3.092-.604.173-.911.246-.18.043-.361.087-.543.124-.331.066-.667.116-1.005.161-.162.021-.322.05-.485.066-.503.05-1.012.081-1.528.081s-1.026-.031-1.529-.081c-.162-.016-.321-.044-.481-.065-.34-.045-.677-.095-1.009-.162-.182-.037-.361-.081-.541-.124-.308-.074-.613-.155-.914-.247-.176-.054-.35-.109-.523-.169-.309-.107-.611-.225-.911-.351-.142-.06-.285-.117-.425-.18l-2.049,2.292c-.116.129-.32.095-.404-.057-.557-1.01-1.127-1.125-1.35-1.126,0,0,0,0-.001,0-.797.601-1.313,1.518-1.313,2.552,0,1.119.605,2.112,1.528,2.703.554.354,1.222.563,1.942.567.862,1.948,2.42,3.514,4.358,4.402.49.224.997.417,1.532.548v3.13c0,1.16.93,2.09,2.09,2.09Z" fill="#ffc84d"/>
          <ellipse cx="17.549" cy="16.528" rx=".928" ry="1.114"/>
          <ellipse cx="22.451" cy="16.528" rx=".928" ry="1.114"/>
          <path d="m21.155,20.921c.209,0,.357.2.302.402-.176.639-.761,1.109-1.456,1.109s-1.281-.47-1.456-1.109c-.055-.201.093-.402.302-.402h2.31Z" fill="#5c2f17"/>
          <path d="m20,9.205c3.595,0,6.953.774,9.848,2.102.477-.402.937-.823,1.362-1.279,1.308-1.406,1.026-3.662-.606-4.674-2.868-1.779-6.562-2.854-10.603-2.854s-7.735,1.074-10.603,2.854c-1.632,1.012-1.914,3.268-.606,4.674.425.456.885.877,1.362,1.279,2.895-1.328,6.252-2.102,9.847-2.102Zm.1-5.05c.291.336.717.551,1.196.551.301,0,.579-.087.817-.234.076-.047.171.016.166.104-.114,1.799-1.089,3.205-2.279,3.205s-2.174-1.418-2.281-3.228c-.005-.089.093-.151.168-.103.246.16.537.255.852.255.479,0,.906-.215,1.196-.551.043-.05.121-.05.164,0Z" fill="#5a81ff"/>
          <path d="m12.579,12.988c.348.194.703.376,1.067.543.007.003.014.006.021.009.14.063.283.12.425.18.299.126.602.244.911.351.173.06.347.115.523.169.301.092.606.173.914.247.18.043.359.087.541.124.332.067.67.117,1.009.162.161.021.319.049.481.065.503.05,1.012.081,1.529.081s1.025-.031,1.528-.081c.163-.016.323-.045.485-.066.338-.045.674-.095,1.005-.161.183-.037.363-.081.543-.124.308-.073.611-.155.911-.246.081-.025.161-.052.241-.078.095-.03.19-.059.284-.092.308-.106.61-.225.908-.35.149-.062.3-.122.447-.189.364-.167.719-.349,1.068-.543.07-.039.143-.073.212-.112.652-.376,1.266-.806,1.853-1.269.125-.099.257-.188.379-.291-.006-.003-.013-.005-.019-.008-2.895-1.328-6.252-2.102-9.848-2.102s-6.953.774-9.847,2.102c-.006.003-.013.005-.019.008.012.01.025.019.037.029.684.572,1.418,1.083,2.195,1.531.07.04.143.074.214.113Z" fill="#262626"/>
          <path d="m18.74,4.706c-.315,0-.606-.095-.852-.255-.075-.049-.173.013-.168.103.107,1.81,1.086,3.228,2.281,3.228s2.165-1.406,2.279-3.205c.006-.089-.09-.151-.166-.104-.239.146-.517.234-.817.234-.479,0-.906-.215-1.196-.551-.043-.05-.121-.05-.164,0-.291.336-.717.551-1.196.551Z" fill="#fb0"/>
          <path d="m33.587,36.88l-.513-2.085c-.176-.716-.409-1.421-.745-2.076-.863.134-1.902-.078-2.857-.678-1.434-.901-2.188-2.353-1.919-3.498l-3.895-1.48c.026.029.056.057.066.091l1.025,3.468c.026.087-.125.153-.251.11l-1.652-.558c-.222-.075-.499-.047-.669.068l-1.835,1.235c-.184.124-.502.124-.686,0l-1.835-1.235c-.17-.115-.447-.143-.669-.068l-1.652.558c-.126.043-.277-.023-.251-.11l1.025-3.468c.01-.033.04-.062.066-.091l-3.993,1.517c-1.932.734-3.531,2.112-4.545,3.878-.416.724-.679,1.526-.879,2.337l-.513,2.085c-.078.315.161.62.486.62h26.203c.325,0,.563-.304.486-.62Zm-23.054-4.839c-.955.6-1.996.812-2.859.678.045-.087.085-.176.133-.261,1.013-1.765,2.613-3.144,4.545-3.877l.1-.038c.269,1.145-.484,2.598-1.919,3.499Zm6.901,3.342c0,.082-.053.155-.13.181l-2.256.751c-.26.086-.541.086-.801,0l-2.256-.751c-.078-.026-.13-.099-.13-.181v-.895c0-.105.085-.191.191-.191h5.192c.105,0,.191.085.191.191v.895Zm8.088.997c-1.026,0-1.858-.703-1.858-1.57,0-.362.325-.894.702-1.392v-.717c0-.098.079-.177.177-.177h1.935c.098,0,.177.079.177.177v.686c.387.507.725,1.054.725,1.423,0,.867-.832,1.57-1.858,1.57Z" fill="#5a81ff"/>
          <path d="m15.251,30.622c-.026.087.125.153.251.11l1.652-.558c.222-.075.499-.047.669.068l1.835,1.235c.184.124.502.124.686,0l1.835-1.235c.17-.115.447-.143.669-.068l1.652.558c.126.043.277-.023.251-.11l-1.025-3.468c-.01-.033-.04-.062-.066-.091-.051-.056-.12-.105-.217-.132l-1.349-.431-1.917,3.979c-.055.104-.295.104-.351,0l-1.917-3.979-1.349.431c-.098.027-.166.076-.217.132-.026.029-.056.057-.066.091l-1.025,3.468Z" fill="#374be5"/>
          <path d="m12.452,28.543l-.1.038c-1.932.734-3.531,2.112-4.545,3.877-.049.085-.089.174-.133.261.863.135,1.904-.078,2.859-.678,1.434-.901,2.188-2.354,1.919-3.499Z" fill="#3036d1"/>
          <path d="m29.472,32.042c.954.599,1.994.812,2.857.678,0,0,.002,0,.003,0-.045-.087-.085-.176-.133-.261-1.013-1.765-2.613-3.144-4.545-3.877l-.1-.038s0,0,0,.001c-.268,1.145.485,2.597,1.919,3.498Z" fill="#3036d1"/>
          <path d="m17.243,34.299h-5.192c-.105,0-.191.085-.191.191v.895c0,.082.053.155.13.181l2.256.751c.26.086.541.086.801,0l2.256-.751c.078-.026.13-.099.13-.181v-.895c0-.105-.085-.191-.191-.191Z" fill="#94a4ff"/>
          <path d="m26.654,32.702c0-.098-.079-.177-.177-.177h-1.935c-.098,0-.177.079-.177.177v.717c-.377.498-.702,1.03-.702,1.392,0,.867.832,1.57,1.858,1.57s1.858-.703,1.858-1.57c0-.37-.338-.917-.725-1.423v-.686Z" fill="#fb0"/>
        </g>
      </g>
    </g>
    <g transform="translate(-330, -34)">
      <text id="ITEM_4_HEAD" text-anchor="start" font-weight="bold" font-size="29" fill="var(--primary-text)" x="0.0" y="-10.0" data-bg-id="ITEM_4_BG" fill-opacity="1.0" stroke="none" style="font-size: 31px; font-family: 'Segoe UI Variable Display', 'Aptos Display', 'Inter', 'Segoe UI', Helvetica, Arial, sans-serif; font-weight: 700; font-kerning: normal; font-feature-settings: &quot;kern&quot; 1, &quot;liga&quot; 1; letter-spacing:-0.4px;" data-final-font-size="31">
        <tspan x="0.0" dy="33.30px">Intelligence Officers</tspan>
      </text>
      <rect id="ITEM_4_HEAD_FRAME" x="0" y="-10" width="846" height="42" fill="none"/>
      <text id="ITEM_4_BODY" text-anchor="start" font-size="21" fill="var(--primary-text)" x="0.0" y="30.0" data-bg-id="ITEM_4_BG" style="font-size: 23px; font-family: 'Segoe UI Variable Text', 'Aptos', 'Inter', 'Segoe UI', Helvetica, Arial, sans-serif; font-weight: 400; font-kerning: normal; font-feature-settings: &quot;kern&quot; 1, &quot;liga&quot; 1;" data-final-font-size="23">
        <tspan x="0.0" dy="40.47px">Security teams evaluate threats to sensitive nuclear facilities</tspan>
      </text>
      <rect id="ITEM_4_BODY_FRAME" x="0" y="30" width="846" height="114" fill="none"/>
    </g>
  </g>
  <g transform="translate(960.0, 900.0)">
    <rect id="ITEM_5_BG" x="-600" y="-64" width="1200" height="184" rx="18" fill="var(--accent-2)" stroke="var(--accent-5)" filter="url(#svg89aac188-shadow)" stroke-width="3" fill-opacity="0.4"/>
    <g transform="translate(-480.0, 0.0)">
      <circle r="45" fill="var(--background)" opacity="0.3"/>
      <circle id="ITEM_5_PAD" cx="0" cy="0" r="42" fill="var(--icon-pad-bg)" stroke="var(--accent-2)" opacity="1" fill-opacity="0.9" stroke-width="2" stroke-opacity="0.72" data-badge-layer="pad"/>
      <circle id="ITEM_5_PAD_INNER" cx="0" cy="0" r="32.76" fill="var(--accent-2)" fill-opacity="0.12" stroke="none" data-badge-layer="tint"/>
      <circle cx="0" cy="0" r="34" fill="none" stroke="var(--accent-4)" stroke-width="3" stroke-dasharray="6 4" display="none" data-suppressed-decoration="redundant-badge-ring"/>
      <g id="ITEM_5_ICON" transform="translate(-34, -34)" data-icon-size="68" stroke-linecap="round" stroke-linejoin="round" data-badge-treatment="clean">
        <g transform="translate(-4.857142857142857,-10.928571428571427) scale(2.4285714285714284)">
          <path d="M29.9611 14.1L29.6311 12.63C28.901 9.34 25.9908 7 22.6205 7H9.3795C6.00924 7 3.09902 9.34 2.35897 12.63L2.03894 14.1C1.81892 15.07 2.55898 16 3.55906 16H9.17949C9.93955 16 10.5496 15.39 10.5496 14.63V13.93C10.5496 13.41 10.9696 12.99 11.4897 12.99H20.5004C21.0204 12.99 21.4404 13.41 21.4404 13.93V14.63C21.4404 15.39 22.0505 16 22.8105 16H28.431C29.441 16 30.1811 15.07 29.9611 14.1Z" fill="#CA0B4A"/>
          <path d="M3 14C2.44772 14 2 14.4477 2 15C2 15.5523 2.44772 16 3 16H9C9.55228 16 10 15.5523 10 15C10 14.4477 9.55228 14 9 14H3ZM23 14C22.4477 14 22 14.4477 22 15C22 15.5523 22.4477 16 23 16H29C29.5523 16 30 15.5523 30 15C30 14.4477 29.5523 14 29 14H23Z" fill="#990838"/>
          <path d="M28.12 19.5L24.46 14.62C24.17 14.23 23.71 14 23.22 14H22.31C22.14 14 22 13.86 22 13.69V11.31C22 11.14 21.86 11 21.69 11H20.31C20.14 11 20 11.14 20 11.31V13.69C20 13.86 19.86 14 19.69 14H12.31C12.14 14 12 13.86 12 13.69V11.31C12 11.14 11.86 11 11.69 11H10.31C10.14 11 10 11.14 10 11.31V13.69C10 13.86 9.86 14 9.69 14H8.78C8.29 14 7.83 14.23 7.53 14.63L3.88 19.5C2.66 21.12 2 23.1 2 25.13V28.44C2 29.3 2.7 30 3.56 30H28.44C29.3 30 30 29.3 30 28.44V25.13C30 23.1 29.34 21.12 28.12 19.5Z" fill="#F92F60"/>
          <path d="M28.44 26.9999H3.56C2.7 26.9999 2 26.36 2 25.5V28.4399C2 29.2999 2.7 29.9999 3.56 29.9999H28.44C29.3 29.9999 30 29.2999 30 28.4399V25.5C30 26.36 29.3 26.9999 28.44 26.9999Z" fill="#990838"/>
          <path d="M13.6981 19H12.3215C12.1407 19 12 18.8593 12 18.6884V17.3116C12 17.1407 12.1407 17 12.3115 17H13.688C13.8588 17 13.9995 17.1407 13.9995 17.3116V18.6884C14.0095 18.8593 13.8689 19 13.6981 19ZM16.6981 19H15.3215C15.1407 19 15 18.8593 15 18.6884V17.3116C15 17.1407 15.1407 17 15.3115 17H16.688C16.8588 17 16.9995 17.1407 16.9995 17.3116V18.6884C17.0095 18.8593 16.8689 19 16.6981 19ZM18.3215 19H19.6981C19.8689 19 20.0095 18.8593 19.9995 18.6884V17.3116C19.9995 17.1407 19.8588 17 19.688 17H18.3115C18.1407 17 18 17.1407 18 17.3116V18.6884C18 18.8593 18.1407 19 18.3215 19ZM13.6981 22H12.3215C12.1407 22 12 21.8593 12 21.6884V20.3116C12 20.1407 12.1407 20 12.3115 20H13.688C13.8588 20 13.9995 20.1407 13.9995 20.3116V21.6884C14.0095 21.8593 13.8689 22 13.6981 22ZM15.3215 22H16.6981C16.8689 22 17.0095 21.8593 16.9995 21.6884V20.3116C16.9995 20.1407 16.8588 20 16.688 20H15.3115C15.1407 20 15 20.1407 15 20.3116V21.6884C15 21.8593 15.1407 22 15.3215 22ZM19.6981 22H18.3215C18.1407 22 18 21.8593 18 21.6884V20.3116C18 20.1407 18.1407 20 18.3115 20H19.688C19.8588 20 19.9995 20.1407 19.9995 20.3116V21.6884C20.0095 21.8593 19.8689 22 19.6981 22ZM12.3215 25H13.6981C13.8689 25 14.0095 24.8593 13.9995 24.6884V23.3116C13.9995 23.1407 13.8588 23 13.688 23H12.3115C12.1407 23 12 23.1407 12 23.3116V24.6884C12 24.8593 12.1407 25 12.3215 25ZM16.6981 25H15.3215C15.1407 25 15 24.8593 15 24.6884V23.3116C15 23.1407 15.1407 23 15.3115 23H16.688C16.8588 23 16.9995 23.1407 16.9995 23.3116V24.6884C17.0095 24.8593 16.8689 25 16.6981 25ZM18.3215 25H19.6981C19.8689 25 20.0095 24.8593 19.9995 24.6884V23.3116C19.9995 23.1407 19.8588 23 19.688 23H18.3115C18.1407 23 18 23.1407 18 23.3116V24.6884C18 24.8593 18.1407 25 18.3215 25Z" fill="#E6E6E6"/>
        </g>
      </g>
    </g>
    <g transform="translate(-330, -34)">
      <text id="ITEM_5_HEAD" text-anchor="start" font-weight="bold" font-size="29" fill="var(--primary-text)" x="0.0" y="-10.0" data-bg-id="ITEM_5_BG" fill-opacity="1.0" stroke="none" style="font-size: 31px; font-family: 'Segoe UI Variable Display', 'Aptos Display', 'Inter', 'Segoe UI', Helvetica, Arial, sans-serif; font-weight: 700; font-kerning: normal; font-feature-settings: &quot;kern&quot; 1, &quot;liga&quot; 1; letter-spacing:-0.4px;" data-final-font-size="31">
        <tspan x="0.0" dy="33.30px">Public Witnesses</tspan>
      </text>
      <rect id="ITEM_5_HEAD_FRAME" x="0" y="-10" width="846" height="42" fill="none"/>
      <text id="ITEM_5_BODY" text-anchor="start" font-size="21" fill="var(--primary-text)" x="0.0" y="30.0" data-bg-id="ITEM_5_BG" style="font-size: 23px; font-family: 'Segoe UI Variable Text', 'Aptos', 'Inter', 'Segoe UI', Helvetica, Arial, sans-serif; font-weight: 400; font-kerning: normal; font-feature-settings: &quot;kern&quot; 1, &quot;liga&quot; 1;" data-final-font-size="23">
        <tspan x="0.0" dy="40.47px">Local residents report brilliant green lights and movements</tspan>
      </text>
      <rect id="ITEM_5_BODY_FRAME" x="0" y="30" width="846" height="114" fill="none"/>
    </g>
  </g>
  <text id="SOURCE_NOTE" x="134.0" y="1058.0" fill="var(--muted-text)" opacity="1" style="font-family: var(--font-family); font-size: 20px;">Source: When Mysterious Green Fireballs Worried the US Government | HISTORY</text>
</svg>
