<?xml version='1.0' encoding='utf-8'?>
<svg xmlns="http://www.w3.org/2000/svg" width="1920" height="1080" viewBox="0 0 1920 1080" data-theme="light" data-semantic-intent="uncertain_compare" data-relation-type="hypothesis_comparison" data-site-visual-identity="signal-cobalt">
  <style>
        @font-face {
            font-family: 'Inter';
            src: url('assets/fonts/Inter-Regular.ttf') format('truetype');
            font-weight: 400;
            font-style: normal;
            font-display: swap;
        }
        @font-face {
            font-family: 'Inter';
            src: url('assets/fonts/Inter-Bold.ttf') format('truetype');
            font-weight: 600;
            font-style: normal;
            font-display: swap;
        }
        @font-face {
            font-family: 'Inter';
            src: url('assets/fonts/Inter-Bold.ttf') format('truetype');
            font-weight: 800;
            font-style: normal;
            font-display: swap;
        }
        
:root {
    --background: #f8fafc;
    --panel: #ffffff;
    --primary-text: #0f172a;
    --muted-text: #64748b;
    --inverse-text: #ffffff;
    --border: #e2e8f0;
    --shadow-color: #000000;
    --icon-pad-bg: #1e293b;
    --art-glow: #0891b2;
    --art-glow-opacity: 0.10;
    --art-sheen: #ffffff;
    --art-sheen-opacity: 0.34;
    --art-shadow: #0f172a;
    --art-shadow-opacity: 0.14;
    --art-muted-line: #94a3b8;
    --art-panel-tint: #f1f5f9;
    --semantic-risk: #b91c1c;
    --semantic-warning: #c2410c;
    --semantic-uncertain: #a16207;
    --semantic-evidence: #1d4ed8;
    --semantic-claim: #6d28d9;
    --semantic-positive: #15803d;
    --semantic-outcome: #0e7490;
    --font-family: 'Inter', 'Segoe UI', 'Kalam', Roboto, Helvetica, Arial, sans-serif;
    --radius-xl: 16px;
    --font-family-headline: 'Segoe UI Variable Display', 'Aptos Display', 'Inter', 'Segoe UI', Helvetica, Arial, sans-serif;
    --font-family-body: 'Segoe UI Variable Text', 'Aptos', 'Inter', 'Segoe UI', Helvetica, Arial, sans-serif;
    --font-heading: var(--font-family-headline);
    --font-body: var(--font-family-body);
    --font-size-h1: 64px;
    --font-size-h2: 42px;
    --font-size-h3: 29px;
    --font-size-body: 21px;
    --font-size-caption: 17px;
    --secondary-text: var(--muted-text);
    --panel-border: var(--border);
    --font-weight-normal: 400;
    --font-weight-medium: 500;
    --font-weight-semibold: 600;
    --font-weight-bold: 700;
    --spacing-gutter-pct: 0.07;
    --spacing-top-pct: 0.15;
    --spacing-bottom-pct: 0.07;
    --spacing-title-y-pct: 0.055;
    --accent-1: #1d4ed8;
    --accent-2: #2563eb;
    --accent-3: #4f46e5;
    --accent-4: #6d28d9;
    --accent-5: #0369a1;
    --accent-6: #c2410c;
}
:root[data-theme="dark"] {
    --background: #0f172a;
    --panel: #1e293b;
    --primary-text: #f1f5f9;
    --muted-text: #94a3b8;
    --inverse-text: #0f172a;
    --border: #334155;
    --shadow-color: #000000;
    --icon-pad-bg: #1e293b;
    --art-glow: #7dd3fc;
    --art-glow-opacity: 0.18;
    --art-sheen: #ffffff;
    --art-sheen-opacity: 0.18;
    --art-shadow: #000000;
    --art-shadow-opacity: 0.28;
    --art-muted-line: #64748b;
    --art-panel-tint: #1e293b;
    --semantic-risk: #f87171;
    --semantic-warning: #fb923c;
    --semantic-uncertain: #fbbf24;
    --semantic-evidence: #60a5fa;
    --semantic-claim: #c084fc;
    --semantic-positive: #4ade80;
    --semantic-outcome: #22d3ee;
    --accent-1: #93c5fd;
    --accent-2: #60a5fa;
    --accent-3: #818cf8;
    --accent-4: #a78bfa;
    --accent-5: #38bdf8;
    --accent-6: #fb923c;
}
:root[data-theme="light"] {
    --background: #f8fafc;
    --panel: #ffffff;
    --primary-text: #0f172a;
    --muted-text: #64748b;
    --inverse-text: #ffffff;
    --border: #e2e8f0;
    --shadow-color: #000000;
    --icon-pad-bg: #1e293b;
    --art-glow: #0891b2;
    --art-glow-opacity: 0.10;
    --art-sheen: #ffffff;
    --art-sheen-opacity: 0.34;
    --art-shadow: #0f172a;
    --art-shadow-opacity: 0.14;
    --art-muted-line: #94a3b8;
    --art-panel-tint: #f1f5f9;
    --semantic-risk: #b91c1c;
    --semantic-warning: #c2410c;
    --semantic-uncertain: #a16207;
    --semantic-evidence: #1d4ed8;
    --semantic-claim: #6d28d9;
    --semantic-positive: #15803d;
    --semantic-outcome: #0e7490;
    --accent-1: #1d4ed8;
    --accent-2: #2563eb;
    --accent-3: #4f46e5;
    --accent-4: #6d28d9;
    --accent-5: #0369a1;
    --accent-6: #c2410c;
}</style>
  <rect x="0" y="0" width="1.92E+3" height="1.08E+3" fill="#252a34" stroke="none" id="programmatic_background"/>
  <line id="HEADER_DECOR" x1="960.0" x2="1080.0" y1="135.0" y2="135.0" stroke="var(--accent-1)" stroke-width="6" stroke-linecap="round"/>
  <defs>
    <filter id="svgb03f2f47-force-white" x="-20%" y="-20%" width="140%" height="140%">
      <feColorMatrix type="matrix" values="0 0 0 0 1                                            0 0 0 0 1                                            0 0 0 0 1                                            0 0 0 1 0"/>
    </filter>
    <pattern id="svgb03f2f47-napkin-hatch" patternUnits="userSpaceOnUse" width="12" height="12">
      <path d="M -3 12 L 12 -3 M 0 15 L 15 0" fill="none" stroke="var(--primary-text)" stroke-width="1" stroke-opacity="0.05"/>
    </pattern>
    <radialGradient id="svgb03f2f47-universal-edge-vignette" cx="50%" cy="50%" r="72%">
      <stop offset="0%" stop-color="var(--background)" stop-opacity="0"/>
      <stop offset="72%" stop-color="var(--background)" stop-opacity="0.12"/>
      <stop offset="100%" stop-color="var(--primary-text)" stop-opacity="0.08"/>
    </radialGradient>
    <linearGradient id="svgb03f2f47-universal-surface-sheen" x1="0%" y1="0%" x2="100%" y2="100%">
      <stop offset="0%" stop-color="var(--art-sheen)" stop-opacity="var(--art-sheen-opacity)"/>
      <stop offset="46%" stop-color="var(--art-sheen)" stop-opacity="0.035"/>
      <stop offset="100%" stop-color="var(--art-panel-tint)" stop-opacity="0.14"/>
    </linearGradient>
    <radialGradient id="svgb03f2f47-universal-icon-aura" cx="50%" cy="42%" r="64%">
      <stop offset="0%" stop-color="var(--art-glow)" stop-opacity="var(--art-glow-opacity)"/>
      <stop offset="100%" stop-color="var(--background)" stop-opacity="0"/>
    </radialGradient>
    <linearGradient id="svgb03f2f47-comparison-card-depth" x1="0%" y1="0%" x2="0%" y2="100%">
      <stop offset="0%" stop-color="var(--art-sheen)" stop-opacity="0.30"/>
      <stop offset="55%" stop-color="var(--art-sheen)" stop-opacity="0.035"/>
      <stop offset="100%" stop-color="var(--art-shadow)" stop-opacity="0.10"/>
    </linearGradient>
    <filter id="svgb03f2f47-text-glow" x="-20%" y="-20%" width="140%" height="140%">
      <feDropShadow dx="0" dy="0" stdDeviation="2" flood-color="#000000" flood-opacity="0.4"/>
    </filter>
    <filter id="svgb03f2f47-shadow" x="-30%" y="-30%" width="160%" height="160%">
      <feDropShadow dx="0" dy="2" stdDeviation="3" flood-color="#000000" flood-opacity="0.08"/>
      <feDropShadow dx="0" dy="6" stdDeviation="10" flood-color="#000000" flood-opacity="0.12"/>
    </filter>
    <marker id="svgb03f2f47-arrowhead" markerWidth="10" markerHeight="7" refX="9" refY="3.5" orient="auto" markerUnits="strokeWidth">
      <polygon points="0 0, 10 3.5, 0 7" fill="var(--muted-text)" opacity="0.6"/>
    </marker>
  </defs>
  <rect width="100%" height="100%" fill="var(--background)" id="CANVAS_BG"/>
  <rect width="100%" height="100%" fill="url(#svgb03f2f47-napkin-hatch)"/>
  <rect id="UNIVERSAL_EDGE_VIGNETTE" width="100%" height="100%" fill="url(#svgb03f2f47-universal-edge-vignette)" opacity="0.62"/>
  <text id="TITLE" x="960.0" y="59" font-size="63" font-weight="700" fill="#0f172a" style="font-size: 69px; font-family: 'Segoe UI Variable Display', 'Aptos Display', 'Inter', 'Segoe UI', Helvetica, Arial, sans-serif; font-weight: 800; font-kerning: normal; font-feature-settings: &quot;kern&quot; 1, &quot;liga&quot; 1; letter-spacing:-1.2px;" text-anchor="middle" data-final-font-size="69">
    <tspan x="960.0" dy="70.47px">Technical Explanations for Anomalies</tspan>
  </text>
  <rect id="TITLE_FRAME" x="134" y="59" width="1652" height="103" fill="none"/>
  <g transform="translate(255.0, 630.0)">
    <rect id="CARD_1_BG" x="-225" y="-330" width="450" height="660" rx="18" fill="var(--semantic-uncertain)" stroke="var(--accent-1)" stroke-width="2" fill-opacity="1.0"/>
    <circle cy="-180" r="50" fill="var(--background)" stroke="var(--accent-1)" stroke-width="2" id="ITEM_1_BADGE"/>
    <rect id="ITEM_1_TEXT_BG" x="-213.0" y="-106.0" width="426.0" height="350.8" rx="22" fill="var(--panel)" fill-opacity="0.94" stroke="var(--primary-text)" stroke-opacity="0.12" stroke-width="1.5"/>
    <rect id="COMPARISON_COLUMNS_ART_PANEL_SHEEN_1" x="-213.0" y="-106.0" width="426.0" height="350.8" rx="16" fill="var(--semantic-uncertain)" opacity="0.82" fill-opacity="1.0"/>
    <text id="ITEM_1_HEAD" data-bg-id="ITEM_1_TEXT_BG" text-anchor="middle" font-weight="bold" font-size="36" fill="var(--primary-text)" x="0.0" y="-90.0" fill-opacity="1.0" style="font-size: 28px; font-family: 'Segoe UI Variable Display', 'Aptos Display', 'Inter', 'Segoe UI', Helvetica, Arial, sans-serif; font-weight: 700; font-kerning: normal; font-feature-settings: &quot;kern&quot; 1, &quot;liga&quot; 1; letter-spacing:-0.4px;" data-final-font-size="28">
      <tspan x="0.0" dy="32.18px">Electromagnetic Interference</tspan>
    </text>
    <rect id="ITEM_1_HEAD_FRAME" x="-195" y="-90" width="390" height="51.75" fill="none"/>
    <text id="ITEM_1_BODY" data-bg-id="ITEM_1_TEXT_BG" text-anchor="middle" font-size="21" x="0.0" y="-30.0" fill="var(--primary-text)" font-weight="700" opacity="1" style="font-size: 23px; font-family: 'Segoe UI Variable Text', 'Aptos', 'Inter', 'Segoe UI', Helvetica, Arial, sans-serif; font-weight: 400; font-kerning: normal; font-feature-settings: &quot;kern&quot; 1, &quot;liga&quot; 1;" data-max-lines="20" data-final-font-size="23">
      <tspan x="0.0" dy="59.58px">Strong energy disrupts electronic</tspan>
      <tspan x="0.0" dy="26.45px">components and communication links</tspan>
    </text>
    <rect id="ITEM_1_BODY_FRAME" x="-190" y="-30" width="380" height="258.8" fill="none"/>
    <circle id="ITEM_1_PAD" cx="0.0" cy="-180.0" r="58" fill="var(--icon-pad-bg)" stroke="var(--semantic-uncertain)" opacity="1" fill-opacity="0.9" stroke-width="2" stroke-opacity="0.72" data-badge-layer="pad"/>
    <circle cx="0.0" cy="-180.0" r="46.4" fill="none" stroke="var(--accent-1)" stroke-width="3" stroke-dasharray="6 4" display="none" data-suppressed-decoration="redundant-badge-ring"/>
    <g id="ITEM_1_ICON" transform="translate(-45.0, -225.0)" data-icon-size="90" stroke-linecap="round" stroke-linejoin="round" data-badge-treatment="clean">
      <g transform="translate(-3.6615126050420193,-3.2813445378151282) scale(4.055126050420168)" vector-effect="non-scaling-stroke" stroke-width="2.79" stroke-linecap="round" stroke-linejoin="round" stroke-opacity="1.0">
        <path d="M4.9 16.1C1 12.2 1 5.8 4.9 1.9" vector-effect="non-scaling-stroke" fill="none" stroke="#f1f5f9"/>
        <path d="M7.8 4.7a6.14 6.14 0 0 0-.8 7.5" vector-effect="non-scaling-stroke" fill="none" stroke="#f1f5f9"/>
        <circle cx="12" cy="9" r="2" vector-effect="non-scaling-stroke" fill="none" stroke="#f1f5f9"/>
        <path d="M16.2 4.8c2 2 2.26 5.11.8 7.47" vector-effect="non-scaling-stroke" fill="none" stroke="#f1f5f9"/>
        <path d="M19.1 1.9a9.96 9.96 0 0 1 0 14.1" vector-effect="non-scaling-stroke" fill="none" stroke="#f1f5f9"/>
        <path d="M9.5 18h5" vector-effect="non-scaling-stroke" fill="none" stroke="#f1f5f9"/>
        <path d="m8 22 4-11 4 11" vector-effect="non-scaling-stroke" fill="none" stroke="#f1f5f9"/>
      </g>
    </g>
  </g>
  <g transform="translate(726.0, 630.0)">
    <rect id="CARD_2_BG" x="-225" y="-330" width="450" height="660" rx="18" fill="var(--semantic-uncertain)" stroke="var(--accent-2)" stroke-width="2" fill-opacity="1.0"/>
    <circle cy="-180" r="50" fill="var(--background)" stroke="var(--accent-2)" stroke-width="2" id="ITEM_2_BADGE"/>
    <rect id="ITEM_2_TEXT_BG" x="-213.0" y="-106.0" width="426.0" height="350.8" rx="22" fill="var(--panel)" fill-opacity="0.94" stroke="var(--primary-text)" stroke-opacity="0.12" stroke-width="1.5"/>
    <rect id="COMPARISON_COLUMNS_ART_PANEL_SHEEN_2" x="-213.0" y="-106.0" width="426.0" height="350.8" rx="16" fill="var(--semantic-uncertain)" opacity="0.82" fill-opacity="1.0"/>
    <text id="ITEM_2_HEAD" data-bg-id="ITEM_2_TEXT_BG" text-anchor="middle" font-weight="bold" font-size="36" fill="var(--primary-text)" x="0.0" y="-90.0" fill-opacity="1.0" style="font-size: 31px; font-family: 'Segoe UI Variable Display', 'Aptos Display', 'Inter', 'Segoe UI', Helvetica, Arial, sans-serif; font-weight: 700; font-kerning: normal; font-feature-settings: &quot;kern&quot; 1, &quot;liga&quot; 1; letter-spacing:-0.4px;" data-final-font-size="31">
      <tspan x="0.0" dy="34.40px">Power Disturbances</tspan>
    </text>
    <rect id="ITEM_2_HEAD_FRAME" x="-195" y="-90" width="390" height="51.75" fill="none"/>
    <text id="ITEM_2_BODY" data-bg-id="ITEM_2_TEXT_BG" text-anchor="middle" font-size="21" x="0.0" y="-30.0" fill="var(--primary-text)" font-weight="700" opacity="1" style="font-size: 23px; font-family: 'Segoe UI Variable Text', 'Aptos', 'Inter', 'Segoe UI', Helvetica, Arial, sans-serif; font-weight: 400; font-kerning: normal; font-feature-settings: &quot;kern&quot; 1, &quot;liga&quot; 1;" data-max-lines="20" data-final-font-size="23">
      <tspan x="0.0" dy="54.29px">Fluctuations in supporting</tspan>
      <tspan x="0.0" dy="26.45px">electrical systems affect</tspan>
      <tspan x="0.0" dy="26.45px">sensitive hardware</tspan>
    </text>
    <rect id="ITEM_2_BODY_FRAME" x="-190" y="-30" width="380" height="258.8" fill="none"/>
    <circle id="ITEM_2_PAD" cx="0.0" cy="-180.0" r="58" fill="var(--icon-pad-bg)" stroke="var(--semantic-uncertain)" opacity="1" fill-opacity="0.9" stroke-width="2" stroke-opacity="0.72" data-badge-layer="pad"/>
    <circle cx="0.0" cy="-180.0" r="46.4" fill="none" stroke="var(--accent-1)" stroke-width="3" stroke-dasharray="6 4" display="none" data-suppressed-decoration="redundant-badge-ring"/>
    <g id="ITEM_2_ICON" transform="translate(-45.0, -225.0)" data-icon-size="90" stroke-linecap="round" stroke-linejoin="round" data-badge-treatment="clean">
      <g transform="translate(-6.702857142857148,-6.7028571428571455) scale(3.2314285714285718)">
        <path d="M13 4V2.79004C13 2.35231 13.3143 2 13.7048 2H18.2952C18.6857 2 19 2.35231 19 2.79004V4H22.23C23.21 4 24 4.78939 24 5.76864V28.2314C24 29.2106 23.21 30 22.23 30H9.77C8.79 30 8 29.2106 8 28.2314V5.76864C8 4.78939 8.79 4 9.77 4H13Z" fill="#9B9B9B"/>
        <path d="M24 6H8V28H24V6Z" fill="#86D72F"/>
        <path d="M15 12.5V13.43C15 13.74 15.26 14 15.57 14H16.43C16.74 14 17 13.74 17 13.42V12.5H17.93C18.24 12.5 18.5 12.24 18.49 11.92V11.07C18.49 10.76 18.24 10.5 17.92 10.5H17V9.57C17 9.26 16.74 9 16.42 9H15.57C15.26 9 15 9.26 15 9.57V10.5H14.07C13.76 10.5 13.5 10.75 13.5 11.07V11.93C13.5 12.24 13.76 12.5 14.07 12.5H15ZM17.93 25H14.07C13.75 25 13.5 24.74 13.5 24.43V23.58C13.5 23.26 13.76 23 14.07 23H17.92C18.24 23 18.49 23.26 18.49 23.57V24.42C18.5 24.74 18.24 25 17.93 25Z" fill="white"/>
      </g>
    </g>
  </g>
  <g transform="translate(1194.0, 630.0)">
    <rect id="CARD_3_BG" x="-225" y="-330" width="450" height="660" rx="18" fill="var(--semantic-uncertain)" stroke="var(--accent-3)" stroke-width="2" fill-opacity="1.0"/>
    <circle cy="-180" r="50" fill="var(--background)" stroke="var(--accent-3)" stroke-width="2" id="ITEM_3_BADGE"/>
    <rect id="ITEM_3_TEXT_BG" x="-213.0" y="-106.0" width="426.0" height="350.8" rx="22" fill="var(--panel)" fill-opacity="0.94" stroke="var(--primary-text)" stroke-opacity="0.12" stroke-width="1.5"/>
    <rect id="COMPARISON_COLUMNS_ART_PANEL_SHEEN_3" x="-213.0" y="-106.0" width="426.0" height="350.8" rx="16" fill="var(--semantic-uncertain)" opacity="0.82" fill-opacity="1.0"/>
    <text id="ITEM_3_HEAD" data-bg-id="ITEM_3_TEXT_BG" text-anchor="middle" font-weight="bold" font-size="36" fill="var(--primary-text)" x="0.0" y="-90.0" fill-opacity="1.0" style="font-size: 31px; font-family: 'Segoe UI Variable Display', 'Aptos Display', 'Inter', 'Segoe UI', Helvetica, Arial, sans-serif; font-weight: 700; font-kerning: normal; font-feature-settings: &quot;kern&quot; 1, &quot;liga&quot; 1; letter-spacing:-0.4px;" data-final-font-size="31">
      <tspan x="0.0" dy="34.40px">Component Failures</tspan>
    </text>
    <rect id="ITEM_3_HEAD_FRAME" x="-195" y="-90" width="390" height="51.75" fill="none"/>
    <text id="ITEM_3_BODY" data-bg-id="ITEM_3_TEXT_BG" text-anchor="middle" font-size="21" x="0.0" y="-30.0" fill="var(--primary-text)" font-weight="700" opacity="1" style="font-size: 23px; font-family: 'Segoe UI Variable Text', 'Aptos', 'Inter', 'Segoe UI', Helvetica, Arial, sans-serif; font-weight: 400; font-kerning: normal; font-feature-settings: &quot;kern&quot; 1, &quot;liga&quot; 1;" data-max-lines="20" data-final-font-size="23">
      <tspan x="0.0" dy="54.29px">Aging parts or manufacturing</tspan>
      <tspan x="0.0" dy="26.45px">defects cause</tspan>
      <tspan x="0.0" dy="26.45px">intermittent problems</tspan>
    </text>
    <rect id="ITEM_3_BODY_FRAME" x="-190" y="-30" width="380" height="258.8" fill="none"/>
    <circle id="ITEM_3_PAD" cx="0.0" cy="-180.0" r="58" fill="var(--icon-pad-bg)" stroke="var(--semantic-uncertain)" opacity="1" fill-opacity="0.9" stroke-width="2" stroke-opacity="0.72" data-badge-layer="pad"/>
    <circle cx="0.0" cy="-180.0" r="46.4" fill="none" stroke="var(--accent-2)" stroke-width="3" stroke-dasharray="6 4" display="none" data-suppressed-decoration="redundant-badge-ring"/>
    <g id="ITEM_3_ICON" transform="translate(-45.0, -225.0)" data-icon-size="90" stroke-linecap="round" stroke-linejoin="round" data-badge-treatment="clean">
      <g transform="translate(-6.7028571428571455,-6.7028571428571455) scale(3.2314285714285718)">
        <path d="M12.8472 3.83391C12.9336 2.79732 13.8001 2 14.8403 2H17.1597C18.1999 2 19.0664 2.79732 19.1528 3.83391L19.3882 6.6587C19.422 7.06373 19.8992 7.2614 20.2095 6.99887L22.3734 5.16789C23.1674 4.49599 24.3439 4.54493 25.0795 5.28045L26.7196 6.92056C27.4551 7.65608 27.504 8.8326 26.8321 9.62666L25.0012 11.7905C24.7386 12.1008 24.9363 12.578 25.3413 12.6118L28.1661 12.8472C29.2027 12.9336 30 13.8001 30 14.8403V17.1597C30 18.1999 29.2027 19.0664 28.1661 19.1528L25.3413 19.3882C24.9363 19.422 24.7386 19.8992 25.0012 20.2095L26.8321 22.3733C27.504 23.1674 27.4551 24.3439 26.7196 25.0794L25.0795 26.7196C24.3439 27.4551 23.1674 27.504 22.3734 26.8321L20.2095 25.0011C19.8992 24.7386 19.422 24.9363 19.3882 25.3413L19.1528 28.1661C19.0664 29.2027 18.1999 30 17.1597 30H14.8403C13.8001 30 12.9336 29.2027 12.8472 28.1661L12.6118 25.3413C12.578 24.9363 12.1008 24.7386 11.7905 25.0012L9.62666 26.8321C8.8326 27.504 7.65608 27.4551 6.92056 26.7196L5.28045 25.0795C4.54493 24.3439 4.496 23.1674 5.16789 22.3734L6.99888 20.2095C7.26141 19.8992 7.06373 19.422 6.65871 19.3882L3.83391 19.1528C2.79732 19.0664 2 18.1999 2 17.1597V14.8403C2 13.8001 2.79732 12.9336 3.83391 12.8472L6.65871 12.6118C7.06373 12.578 7.2614 12.1008 6.99888 11.7905L5.16789 9.62664C4.496 8.83258 4.54493 7.65606 5.28045 6.92054L6.92056 5.28043C7.65608 4.54491 8.8326 4.49597 9.62666 5.16787L11.7905 6.99884C12.1008 7.26137 12.578 7.06369 12.6118 6.65867L12.8472 3.83391ZM21 16C21 13.2386 18.7614 11 16 11C13.2386 11 11 13.2386 11 16C11 18.7614 13.2386 21 16 21C18.7614 21 21 18.7614 21 16Z" fill="#B4ACBC"/>
        <path d="M24 16C24 20.4183 20.4183 24 16 24C11.5817 24 8 20.4183 8 16C8 11.5817 11.5817 8 16 8C20.4183 8 24 11.5817 24 16ZM20.5 16C20.5 13.5147 18.4853 11.5 16 11.5C13.5147 11.5 11.5 13.5147 11.5 16C11.5 18.4853 13.5147 20.5 16 20.5C18.4853 20.5 20.5 18.4853 20.5 16Z" fill="#998EA4"/>
        <path d="M10.5 16C10.5 12.9624 12.9624 10.5 16 10.5C19.0376 10.5 21.5 12.9624 21.5 16C21.5 19.0376 19.0376 21.5 16 21.5C12.9624 21.5 10.5 19.0376 10.5 16ZM21 16C21 13.2386 18.7614 11 16 11C13.2386 11 11 13.2386 11 16C11 18.7614 13.2386 21 16 21C18.7614 21 21 18.7614 21 16Z" fill="#CDC4D6"/>
      </g>
    </g>
  </g>
  <g transform="translate(1665.0, 630.0)">
    <rect id="CARD_4_BG" x="-225" y="-330" width="450" height="660" rx="18" fill="var(--semantic-uncertain)" stroke="var(--accent-4)" stroke-width="2" fill-opacity="1.0"/>
    <circle cy="-180" r="50" fill="var(--background)" stroke="var(--accent-4)" stroke-width="2" id="ITEM_4_BADGE"/>
    <rect id="ITEM_4_TEXT_BG" x="-213.0" y="-106.0" width="426.0" height="350.8" rx="22" fill="var(--panel)" fill-opacity="0.94" stroke="var(--primary-text)" stroke-opacity="0.12" stroke-width="1.5"/>
    <rect id="COMPARISON_COLUMNS_ART_PANEL_SHEEN_4" x="-213.0" y="-106.0" width="426.0" height="350.8" rx="16" fill="var(--semantic-uncertain)" opacity="0.82" fill-opacity="1.0"/>
    <text id="ITEM_4_HEAD" data-bg-id="ITEM_4_TEXT_BG" text-anchor="middle" font-weight="bold" font-size="36" fill="var(--primary-text)" x="0.0" y="-90.0" fill-opacity="1.0" style="font-size: 31px; font-family: 'Segoe UI Variable Display', 'Aptos Display', 'Inter', 'Segoe UI', Helvetica, Arial, sans-serif; font-weight: 700; font-kerning: normal; font-feature-settings: &quot;kern&quot; 1, &quot;liga&quot; 1; letter-spacing:-0.4px;" data-final-font-size="31">
      <tspan x="0.0" dy="34.40px">Environmental Effects</tspan>
    </text>
    <rect id="ITEM_4_HEAD_FRAME" x="-195" y="-90" width="390" height="51.75" fill="none"/>
    <text id="ITEM_4_BODY" data-bg-id="ITEM_4_TEXT_BG" text-anchor="middle" font-size="21" x="0.0" y="-30.0" fill="var(--primary-text)" font-weight="700" opacity="1" style="font-size: 23px; font-family: 'Segoe UI Variable Text', 'Aptos', 'Inter', 'Segoe UI', Helvetica, Arial, sans-serif; font-weight: 400; font-kerning: normal; font-feature-settings: &quot;kern&quot; 1, &quot;liga&quot; 1;" data-max-lines="20" data-final-font-size="23">
      <tspan x="0.0" dy="59.58px">Temperature and moisture influence</tspan>
      <tspan x="0.0" dy="26.45px">electronic reliability over time</tspan>
    </text>
    <rect id="ITEM_4_BODY_FRAME" x="-190" y="-30" width="380" height="258.8" fill="none"/>
    <circle id="ITEM_4_PAD" cx="0.0" cy="-180.0" r="58" fill="var(--icon-pad-bg)" stroke="var(--semantic-uncertain)" opacity="1" fill-opacity="0.9" stroke-width="2" stroke-opacity="0.72" data-badge-layer="pad"/>
    <circle cx="0.0" cy="-180.0" r="46.4" fill="none" stroke="var(--accent-3)" stroke-width="3" stroke-dasharray="6 4" display="none" data-suppressed-decoration="redundant-badge-ring"/>
    <g id="ITEM_4_ICON" transform="translate(-45.0, -225.0)" data-icon-size="90" stroke-linecap="round" stroke-linejoin="round" data-badge-treatment="clean">
      <g transform="translate(-6.7028571428571455,-6.7028571428571455) scale(3.2314285714285718)">
        <path d="M21.74 16.08L8.83 3.17C7.27 1.61 4.74 1.61 3.17 3.17C1.61 4.73 1.61 7.26 3.17 8.83L16.08 21.74C15.69 23.92 16.34 26.24 18.02 27.92C20.75 30.65 25.19 30.65 27.92 27.92C30.65 25.19 30.65 20.75 27.92 18.02C26.24 16.34 23.92 15.7 21.74 16.08Z" fill="#F4F4F4"/>
        <path d="M4.59 7.42002C3.81 6.64002 3.81 5.37 4.59 4.59C5.37 3.81 6.63 3.81 7.42 4.59L21.1439 18.3139C21.7096 18.0919 22.3255 17.97 22.97 17.97C25.7314 17.97 27.97 20.2085 27.97 22.97C27.97 25.7314 25.7314 27.97 22.97 27.97C20.2085 27.97 17.97 25.7314 17.97 22.97C17.97 22.3255 18.0919 21.7096 18.3139 21.1439L4.59 7.42002Z" fill="#F8312F"/>
        <path d="M10.23 4.59998L8.11 6.71997C7.72 7.10997 7.72 7.74997 8.11 8.12997C8.5 8.51997 9.13 8.51997 9.52 8.12997L11.64 6.00998L10.23 4.59998ZM12.35 10.97L14.47 8.84998L15.88 10.26L13.76 12.38C13.37 12.77 12.74 12.77 12.35 12.38C11.96 11.99 11.96 11.36 12.35 10.97ZM16.59 15.21L18.71 13.09L20.12 14.5L18 16.62C17.61 17.01 16.98 17.01 16.59 16.62C16.2 16.23 16.2 15.6 16.59 15.21Z" fill="black"/>
        <path d="M24.97 23.97C26.0745 23.97 26.97 23.0745 26.97 21.97C26.97 20.8654 26.0745 19.97 24.97 19.97C23.8654 19.97 22.97 20.8654 22.97 21.97C22.97 23.0745 23.8654 23.97 24.97 23.97Z" fill="#FF8687"/>
      </g>
    </g>
  </g>
  <text id="SOURCE_NOTE" x="134.0" y="1058.0" fill="var(--muted-text)" opacity="1" style="font-family: var(--font-family); font-size: 20px;">Source: Page:AARO Historical Record Report Volume 1 2024</text>
  <text id="EDITORIAL_NOTE" x="1786.0" y="1058.0" fill="var(--semantic-uncertain)" opacity="1" style="font-family: var(--font-family); font-size: 20px;" text-anchor="end">Interpretations remain disputed; wording reflects source uncertainty.</text>
</svg>
