<?xml version='1.0' encoding='utf-8'?>
<svg xmlns="http://www.w3.org/2000/svg" width="1920" height="1080" viewBox="0 0 1920 1080" data-theme="light" data-semantic-intent="taxonomy_list" data-relation-type="taxonomy" data-site-visual-identity="signal-cobalt">
  <style>
        @font-face {
            font-family: 'Inter';
            src: url('assets/fonts/Inter-Regular.ttf') format('truetype');
            font-weight: 400;
            font-style: normal;
            font-display: swap;
        }
        @font-face {
            font-family: 'Inter';
            src: url('assets/fonts/Inter-Bold.ttf') format('truetype');
            font-weight: 600;
            font-style: normal;
            font-display: swap;
        }
        @font-face {
            font-family: 'Inter';
            src: url('assets/fonts/Inter-Bold.ttf') format('truetype');
            font-weight: 800;
            font-style: normal;
            font-display: swap;
        }
        
:root {
    --background: #f8fafc;
    --panel: #ffffff;
    --primary-text: #0f172a;
    --muted-text: #64748b;
    --inverse-text: #ffffff;
    --border: #e2e8f0;
    --shadow-color: #000000;
    --icon-pad-bg: #1e293b;
    --art-glow: #0891b2;
    --art-glow-opacity: 0.10;
    --art-sheen: #ffffff;
    --art-sheen-opacity: 0.34;
    --art-shadow: #0f172a;
    --art-shadow-opacity: 0.14;
    --art-muted-line: #94a3b8;
    --art-panel-tint: #f1f5f9;
    --semantic-risk: #b91c1c;
    --semantic-warning: #c2410c;
    --semantic-uncertain: #a16207;
    --semantic-evidence: #1d4ed8;
    --semantic-claim: #6d28d9;
    --semantic-positive: #15803d;
    --semantic-outcome: #0e7490;
    --font-family: 'Inter', 'Segoe UI', 'Kalam', Roboto, Helvetica, Arial, sans-serif;
    --radius-xl: 16px;
    --font-family-headline: 'Segoe UI Variable Display', 'Aptos Display', 'Inter', 'Segoe UI', Helvetica, Arial, sans-serif;
    --font-family-body: 'Segoe UI Variable Text', 'Aptos', 'Inter', 'Segoe UI', Helvetica, Arial, sans-serif;
    --font-heading: var(--font-family-headline);
    --font-body: var(--font-family-body);
    --font-size-h1: 64px;
    --font-size-h2: 42px;
    --font-size-h3: 29px;
    --font-size-body: 21px;
    --font-size-caption: 17px;
    --secondary-text: var(--muted-text);
    --panel-border: var(--border);
    --font-weight-normal: 400;
    --font-weight-medium: 500;
    --font-weight-semibold: 600;
    --font-weight-bold: 700;
    --spacing-gutter-pct: 0.07;
    --spacing-top-pct: 0.15;
    --spacing-bottom-pct: 0.07;
    --spacing-title-y-pct: 0.055;
    --accent-1: #1d4ed8;
    --accent-2: #2563eb;
    --accent-3: #4f46e5;
    --accent-4: #6d28d9;
    --accent-5: #0369a1;
    --accent-6: #c2410c;
}
:root[data-theme="dark"] {
    --background: #0f172a;
    --panel: #1e293b;
    --primary-text: #f1f5f9;
    --muted-text: #94a3b8;
    --inverse-text: #0f172a;
    --border: #334155;
    --shadow-color: #000000;
    --icon-pad-bg: #1e293b;
    --art-glow: #7dd3fc;
    --art-glow-opacity: 0.18;
    --art-sheen: #ffffff;
    --art-sheen-opacity: 0.18;
    --art-shadow: #000000;
    --art-shadow-opacity: 0.28;
    --art-muted-line: #64748b;
    --art-panel-tint: #1e293b;
    --semantic-risk: #f87171;
    --semantic-warning: #fb923c;
    --semantic-uncertain: #fbbf24;
    --semantic-evidence: #60a5fa;
    --semantic-claim: #c084fc;
    --semantic-positive: #4ade80;
    --semantic-outcome: #22d3ee;
    --accent-1: #93c5fd;
    --accent-2: #60a5fa;
    --accent-3: #818cf8;
    --accent-4: #a78bfa;
    --accent-5: #38bdf8;
    --accent-6: #fb923c;
}
:root[data-theme="light"] {
    --background: #f8fafc;
    --panel: #ffffff;
    --primary-text: #0f172a;
    --muted-text: #64748b;
    --inverse-text: #ffffff;
    --border: #e2e8f0;
    --shadow-color: #000000;
    --icon-pad-bg: #1e293b;
    --art-glow: #0891b2;
    --art-glow-opacity: 0.10;
    --art-sheen: #ffffff;
    --art-sheen-opacity: 0.34;
    --art-shadow: #0f172a;
    --art-shadow-opacity: 0.14;
    --art-muted-line: #94a3b8;
    --art-panel-tint: #f1f5f9;
    --semantic-risk: #b91c1c;
    --semantic-warning: #c2410c;
    --semantic-uncertain: #a16207;
    --semantic-evidence: #1d4ed8;
    --semantic-claim: #6d28d9;
    --semantic-positive: #15803d;
    --semantic-outcome: #0e7490;
    --accent-1: #1d4ed8;
    --accent-2: #2563eb;
    --accent-3: #4f46e5;
    --accent-4: #6d28d9;
    --accent-5: #0369a1;
    --accent-6: #c2410c;
}</style>
  <rect x="0" y="0" width="1.92E+3" height="1.08E+3" fill="#252a34" stroke="none" id="programmatic_background"/>
  <line id="HEADER_DECOR" x1="960.0" x2="1080.0" y1="115.0" y2="115.0" stroke="var(--accent-1)" stroke-width="6" stroke-linecap="round"/>
  <defs>
    <pattern id="svg69588b21-napkin-hatch" patternUnits="userSpaceOnUse" width="12" height="12">
      <path d="M -3 12 L 12 -3 M 0 15 L 15 0" fill="none" stroke="var(--primary-text)" stroke-width="1" stroke-opacity="0.05"/>
    </pattern>
    <filter id="svg69588b21-shadow" x="-30%" y="-30%" width="160%" height="160%">
      <feDropShadow dx="0" dy="2" stdDeviation="3" flood-color="#000000" flood-opacity="0.08"/>
      <feDropShadow dx="0" dy="6" stdDeviation="10" flood-color="#000000" flood-opacity="0.12"/>
    </filter>
    <radialGradient id="svg69588b21-universal-edge-vignette" cx="50%" cy="50%" r="72%">
      <stop offset="0%" stop-color="var(--background)" stop-opacity="0"/>
      <stop offset="72%" stop-color="var(--background)" stop-opacity="0.12"/>
      <stop offset="100%" stop-color="var(--primary-text)" stop-opacity="0.08"/>
    </radialGradient>
    <linearGradient id="svg69588b21-universal-surface-sheen" x1="0%" y1="0%" x2="100%" y2="100%">
      <stop offset="0%" stop-color="var(--art-sheen)" stop-opacity="var(--art-sheen-opacity)"/>
      <stop offset="46%" stop-color="var(--art-sheen)" stop-opacity="0.035"/>
      <stop offset="100%" stop-color="var(--art-panel-tint)" stop-opacity="0.14"/>
    </linearGradient>
    <radialGradient id="svg69588b21-universal-icon-aura" cx="50%" cy="42%" r="64%">
      <stop offset="0%" stop-color="var(--art-glow)" stop-opacity="var(--art-glow-opacity)"/>
      <stop offset="100%" stop-color="var(--background)" stop-opacity="0"/>
    </radialGradient>
    <linearGradient id="svg69588b21-taxonomy-node-sheen" x1="0%" y1="0%" x2="100%" y2="100%">
      <stop offset="0%" stop-color="var(--inverse-text)" stop-opacity="0.18"/>
      <stop offset="100%" stop-color="var(--background)" stop-opacity="0.14"/>
    </linearGradient>
    <filter id="svg69588b21-text-glow" x="-20%" y="-20%" width="140%" height="140%">
      <feDropShadow dx="0" dy="0" stdDeviation="2" flood-color="#000000" flood-opacity="0.4"/>
    </filter>
    <marker id="svg69588b21-arrowhead" markerWidth="10" markerHeight="7" refX="9" refY="3.5" orient="auto" markerUnits="strokeWidth">
      <polygon points="0 0, 10 3.5, 0 7" fill="var(--muted-text)" opacity="0.6"/>
    </marker>
  </defs>
  <rect width="100%" height="100%" fill="var(--background)" id="CANVAS_BG"/>
  <rect width="100%" height="100%" fill="url(#svg69588b21-napkin-hatch)"/>
  <rect id="UNIVERSAL_EDGE_VIGNETTE" width="100%" height="100%" fill="url(#svg69588b21-universal-edge-vignette)" opacity="0.62"/>
  <text id="TITLE" x="960.0" y="59" text-anchor="middle" font-weight="800" font-size="56" fill="#0f172a" style="font-size: 69px; font-family: 'Segoe UI Variable Display', 'Aptos Display', 'Inter', 'Segoe UI', Helvetica, Arial, sans-serif; font-weight: 800; font-kerning: normal; font-feature-settings: &quot;kern&quot; 1, &quot;liga&quot; 1; letter-spacing:-1.2px;" data-final-font-size="69">
    <tspan x="960.0" dy="70.47px">Evidence Strength Hierarchy in UAP Claims</tspan>
  </text>
  <rect id="TITLE_FRAME" x="134" y="39" width="1652" height="103" fill="none"/>
  <g id="DIAGRAM_SCALER" transform="translate(50, 20) scale(0.95)">
    <!-- Parent Node (ITEM_1) - Top Box -->
    <g transform="translate(960, 235)">
      <rect id="ITEM_1_BG" x="-310" y="-90" width="620" height="180" rx="18" fill="var(--panel)" stroke="var(--accent-1)" stroke-width="6" filter="url(#svg69588b21-shadow)"/>
      <circle id="ITEM_1_PAD" cx="-140" cy="0" r="52" fill="var(--icon-pad-bg)" stroke="var(--accent-1)" opacity="1" fill-opacity="0.9" stroke-width="2" stroke-opacity="0.72" data-badge-layer="pad"/>
      <circle id="ITEM_1_PAD_INNER" cx="-140" cy="0" r="40.56" fill="var(--accent-1)" fill-opacity="0.12" stroke="none" data-badge-layer="tint"/>
      <circle cx="-140" cy="0" r="42" fill="none" stroke="var(--accent-1)" stroke-width="3" stroke-dasharray="6 4" display="none" data-suppressed-decoration="redundant-badge-ring"/>
      <g id="ITEM_1_ICON" transform="translate(-180, -40)" data-icon-size="80" stroke-linecap="round" stroke-linejoin="round" data-badge-treatment="clean">
        <g transform="translate(-3.997288135593223,-3.997288135593223) scale(3.666440677966102)" vector-effect="non-scaling-stroke" stroke-width="2.67" stroke-linecap="round" stroke-linejoin="round" stroke-opacity="1.0">
          <path d="M19.07 4.93A10 10 0 0 0 6.99 3.34" vector-effect="non-scaling-stroke" fill="none" stroke="#f1f5f9"/>
          <path d="M4 6h.01" vector-effect="non-scaling-stroke" fill="none" stroke="#f1f5f9"/>
          <path d="M2.29 9.62A10 10 0 1 0 21.31 8.35" vector-effect="non-scaling-stroke" fill="none" stroke="#f1f5f9"/>
          <path d="M16.24 7.76A6 6 0 1 0 8.23 16.67" vector-effect="non-scaling-stroke" fill="none" stroke="#f1f5f9"/>
          <path d="M12 18h.01" vector-effect="non-scaling-stroke" fill="none" stroke="#f1f5f9"/>
          <path d="M17.99 11.66A6 6 0 0 1 15.77 16.67" vector-effect="non-scaling-stroke" fill="none" stroke="#f1f5f9"/>
          <circle cx="12" cy="12" r="2" vector-effect="non-scaling-stroke" fill="none" stroke="#f1f5f9"/>
          <path d="m13.41 10.59 5.66-5.66" vector-effect="non-scaling-stroke" fill="none" stroke="#f1f5f9"/>
        </g>
      </g>
      <rect id="ITEM_1_TEXT_BG" x="-88.0" y="-78.0" width="416.0" height="170.0" rx="22" fill="var(--panel)" fill-opacity="0.94" stroke="none" stroke-opacity="0" stroke-width="1.5"/>
      <text id="ITEM_1_HEAD" x="120.0" y="-45.0" text-anchor="middle" font-weight="bold" font-size="26" fill="var(--accent-1)" data-bg-id="ITEM_1_BG" fill-opacity="1.0" style="font-size: 31px; font-family: 'Segoe UI Variable Display', 'Aptos Display', 'Inter', 'Segoe UI', Helvetica, Arial, sans-serif; font-weight: 700; font-kerning: normal; font-feature-settings: &quot;kern&quot; 1, &quot;liga&quot; 1; letter-spacing:-0.4px;" data-final-font-size="31">
        <tspan x="120.0" dy="31.02px">Technical Proof</tspan>
      </text>
      <rect id="ITEM_1_HEAD_FRAME" x="-70" y="-45" width="380" height="45" fill="none"/>
      <text id="ITEM_1_BODY" x="125.0" y="0.0" text-anchor="middle" font-size="20" fill="var(--primary-text)" opacity="0.9" data-bg-id="ITEM_1_TEXT_BG" style="font-size: 23px; font-family: 'Segoe UI Variable Text', 'Aptos', 'Inter', 'Segoe UI', Helvetica, Arial, sans-serif; font-weight: 400; font-kerning: normal; font-feature-settings: &quot;kern&quot; 1, &quot;liga&quot; 1;" data-final-font-size="23">
        <tspan x="125.0" dy="21.73px">Independent sensor records</tspan>
        <tspan x="125.0" dy="26.45px">and contemporaneous</tspan>
        <tspan x="125.0" dy="26.45px">technical analysis</tspan>
      </text>
      <rect id="ITEM_1_BODY_FRAME" x="-55" y="0" width="360" height="96" fill="none"/>
    </g>
    <!-- Vertical connector from top box -->
    <path d="M 960 325 L 960 395" stroke="var(--muted-text)" stroke-width="6"/>
    <!-- Horizontal connector bar -->
    <path d="M 270 395 L 1650 395" stroke="var(--muted-text)" stroke-width="6"/>
    <!-- Vertical connectors to children - evenly spaced -->
    <line x1="270" y1="395" x2="270" y2="470" stroke="var(--muted-text)" stroke-width="6"/>
    <line x1="730" y1="395" x2="730" y2="470" stroke="var(--muted-text)" stroke-width="6"/>
    <line x1="1190" y1="395" x2="1190" y2="470" stroke="var(--muted-text)" stroke-width="6"/>
    <line x1="1650" y1="395" x2="1650" y2="470" stroke="var(--muted-text)" stroke-width="6"/>
    <!-- Child Node 1 (ITEM_2) -->
    <g transform="translate(270, 532)">
      <circle id="ITEM_2_PAD" cx="0" cy="0" r="62" fill="var(--icon-pad-bg)" stroke="var(--accent-2)" opacity="1" fill-opacity="0.9" stroke-width="2" stroke-opacity="0.72" data-badge-layer="pad"/>
      <circle id="ITEM_2_PAD_INNER" cx="0" cy="0" r="48.36" fill="var(--accent-2)" fill-opacity="0.12" stroke="none" data-badge-layer="tint"/>
      <circle cx="0" cy="0" r="50" fill="none" stroke="var(--accent-2)" stroke-width="3" stroke-dasharray="6 4" filter="url(#svg69588b21-shadow)" display="none" data-suppressed-decoration="redundant-badge-ring"/>
      <g id="ITEM_2_ICON" transform="translate(-38, -38)" data-icon-size="76" stroke-linecap="round" stroke-linejoin="round" data-badge-treatment="clean">
        <g transform="translate(-14.677857142857142,-17.268571428571427) scale(3.454285714285714)">
          <path d="M5 26H28V29C28 29.5523 27.5523 30 27 30H6C5.44772 30 5 29.5523 5 29V26Z" fill="#F9C23C"/>
          <path d="M6 26H27V27.5C27 28.3284 26.3284 29 25.5 29H7.5C6.67157 29 6 28.3284 6 27.5V26Z" fill="#D3D3D3"/>
          <path d="M5 3C5 2.44772 5.44772 2 6 2H27C27.5523 2 28 2.44772 28 3V26C28 26.5523 27.5523 27 27 27H6C5.44772 27 5 26.5523 5 26V3Z" fill="#FCD53F"/>
          <path d="M11 9C11 8.44772 11.4477 8 12 8H20C20.5523 8 21 8.44772 21 9V11C21 11.5523 20.5523 12 20 12H12C11.4477 12 11 11.5523 11 11V9Z" fill="#FFB02E"/>
          <path d="M7.48228 6C7.36097 5.15193 6.63162 4.5 5.75 4.5C4.7835 4.5 4 5.2835 4 6.25C4 6.9481 4.40876 7.55073 5 7.83159V8.33697C5.24076 8.28009 5.49187 8.25 5.75 8.25C7.46081 8.25 8.86287 9.57189 8.99053 11.25H9C9 11.3485 8.9806 11.446 8.94291 11.537C8.90522 11.628 8.84997 11.7107 8.78033 11.7803C8.71069 11.85 8.62801 11.9052 8.53701 11.9429C8.44602 11.9806 8.34849 12 8.25 12C8.15151 12 8.05398 11.9806 7.96299 11.9429C7.87199 11.9052 7.78931 11.85 7.71967 11.7803C7.65003 11.7107 7.59478 11.628 7.55709 11.537C7.5194 11.446 7.5 11.3485 7.5 11.25H7.48228C7.36097 10.4019 6.63162 9.75 5.75 9.75C4.7835 9.75 4 10.5335 4 11.5C4 12.1981 4.40876 12.8007 5 13.0816V13.587C5.24076 13.5301 5.49187 13.5 5.75 13.5C7.46081 13.5 8.86287 14.8219 8.99053 16.5H9C9 16.5985 8.9806 16.696 8.94291 16.787C8.90522 16.878 8.84997 16.9607 8.78033 17.0303C8.71069 17.1 8.62801 17.1552 8.53701 17.1929C8.44602 17.2306 8.34849 17.25 8.25 17.25C8.15151 17.25 8.05398 17.2306 7.96299 17.1929C7.87199 17.1552 7.78931 17.1 7.71967 17.0303C7.65003 16.9607 7.59478 16.878 7.55709 16.787C7.5194 16.696 7.5 16.5985 7.5 16.5H7.48228C7.36097 15.6519 6.63162 15 5.75 15C4.7835 15 4 15.7835 4 16.75C4 17.4481 4.40876 18.0507 5 18.3316V18.837C5.24076 18.7801 5.49187 18.75 5.75 18.75C7.46081 18.75 8.86287 20.0719 8.99053 21.75H9C9 21.8485 8.9806 21.946 8.94291 22.037C8.90522 22.128 8.84997 22.2107 8.78033 22.2803C8.71069 22.35 8.62801 22.4052 8.53701 22.4429C8.44602 22.4806 8.34849 22.5 8.25 22.5C8.15151 22.5 8.05398 22.4806 7.96299 22.4429C7.87199 22.4052 7.78931 22.35 7.71967 22.2803C7.65003 22.2107 7.59478 22.128 7.55709 22.037C7.5194 21.946 7.5 21.8485 7.5 21.75H7.48228C7.36097 20.9019 6.63162 20.25 5.75 20.25C4.7835 20.25 4 21.0335 4 22C4 22.6981 4.40876 23.3007 5 23.5816V25.163C3.56665 24.8245 2.5 23.5368 2.5 22C2.5 20.9218 3.02505 19.9662 3.83341 19.375C3.02505 18.7838 2.5 17.8282 2.5 16.75C2.5 15.6718 3.02505 14.7162 3.83341 14.125C3.02505 13.5338 2.5 12.5782 2.5 11.5C2.5 10.4218 3.02505 9.46622 3.83341 8.875C3.02505 8.28378 2.5 7.32821 2.5 6.25C2.5 4.45507 3.95507 3 5.75 3C7.46081 3 8.86287 4.32189 8.99053 6H9C9 6.09849 8.9806 6.19602 8.94291 6.28701C8.90522 6.37801 8.84997 6.46069 8.78033 6.53033C8.71069 6.59997 8.62801 6.65522 8.53701 6.69291C8.44602 6.7306 8.34849 6.75 8.25 6.75C8.15151 6.75 8.05398 6.7306 7.96299 6.69291C7.87199 6.65522 7.78931 6.59997 7.71967 6.53033C7.65003 6.46069 7.59478 6.37801 7.55709 6.28701C7.5194 6.19602 7.5 6.09849 7.5 6H7.48228Z" fill="#9B9B9B"/>
        </g>
      </g>
      <g transform="translate(0, 90)">
        <rect x="-200" y="-15" width="400" height="228" rx="18" fill="var(--accent-2)" fill-opacity="1.0" stroke="var(--accent-2)" id="ITEM_2_BG" stroke-width="3"/>
        <rect id="ITEM_2_TEXT_BG" x="-208.0" y="-9.0" width="416.0" height="228.0" rx="22" fill="var(--panel)" fill-opacity="0.94" stroke="none" stroke-opacity="0" stroke-width="1.5"/>
        <text id="ITEM_2_HEAD" text-anchor="middle" font-weight="bold" font-size="24" fill="var(--inverse-text)" x="0.0" y="6.0" data-bg-id="ITEM_2_BG" fill-opacity="1.0" style="font-size: 31px; font-family: 'Segoe UI Variable Display', 'Aptos Display', 'Inter', 'Segoe UI', Helvetica, Arial, sans-serif; font-weight: 700; font-kerning: normal; font-feature-settings: &quot;kern&quot; 1, &quot;liga&quot; 1; letter-spacing:-0.4px;" data-final-font-size="31">
          <tspan x="0.0" dy="29.52px">Operational Records</tspan>
        </text>
        <rect id="ITEM_2_HEAD_FRAME" x="-190" y="6" width="380" height="42" fill="none"/>
        <text id="ITEM_2_BODY" text-anchor="middle" font-size="18" fill="var(--primary-text)" x="0.0" y="52.0" data-bg-id="ITEM_2_TEXT_BG" opacity="0.9" style="font-size: 23px; font-family: 'Segoe UI Variable Text', 'Aptos', 'Inter', 'Segoe UI', Helvetica, Arial, sans-serif; font-weight: 400; font-kerning: normal; font-feature-settings: &quot;kern&quot; 1, &quot;liga&quot; 1;" data-final-font-size="23">
          <tspan x="0.0" dy="37.42px">Confirmed historical missile</tspan>
          <tspan x="0.0" dy="26.45px">shutdowns and security logs</tspan>
        </text>
        <rect id="ITEM_2_BODY_FRAME" x="-190" y="52" width="380" height="148" fill="none"/>
      </g>
    </g>
    <!-- Child Node 2 (ITEM_3) -->
    <g transform="translate(730, 532)">
      <circle id="ITEM_3_PAD" cx="0" cy="0" r="62" fill="var(--icon-pad-bg)" stroke="var(--accent-3)" opacity="1" fill-opacity="0.9" stroke-width="2" stroke-opacity="0.72" data-badge-layer="pad"/>
      <circle id="ITEM_3_PAD_INNER" cx="0" cy="0" r="48.36" fill="var(--accent-3)" fill-opacity="0.12" stroke="none" data-badge-layer="tint"/>
      <circle cx="0" cy="0" r="50" fill="none" stroke="var(--accent-3)" stroke-width="3" stroke-dasharray="6 4" filter="url(#svg69588b21-shadow)" display="none" data-suppressed-decoration="redundant-badge-ring"/>
      <g id="ITEM_3_ICON" transform="translate(-38, -38)" data-icon-size="76" stroke-linecap="round" stroke-linejoin="round" data-badge-treatment="clean">
        <g transform="translate(-17.268571428571427,-17.268571428571427) scale(3.454285714285714)">
          <path d="M19.17 30H15.56C15.23 30 14.93 29.78 14.84 29.46L11 16H16L19.77 29.2C19.89 29.6 19.59 30 19.17 30Z" fill="#7D4533"/>
          <path d="M30 12.46C29.98 11.64 29.28 11 28.46 11H28.43C27.89 11 27.4 10.66 27.21 10.15C25.45 5.39 20.87 2 15.5 2C8.65 2 3 7.67 3 14.5C3 14.5 3 15.74 3 17.06C3 18.39 2.67 19.7 2.13 20.92C2.04 21.1 2 21.3 2 21.52C2.01 22.34 2.68 23 3.5 23C6.37 23 7.65 22.4 10.26 21.23L22.96 15.51C25.19 14.51 26.05 14 28.49 14C29.34 14 30.02 13.31 30 12.46Z" fill="#008463"/>
          <path d="M9.02999 18.49L21.73 12.77C24.02 11.74 24.99 11.02 28.27 11.02C28.27 11.01 28.26 10.99 28.26 10.98C27.79 10.92 27.38 10.6 27.21 10.14C25.45 5.39 20.87 2 15.5 2C8.64999 2 2.99999 7.67 2.99999 14.5C2.99999 14.5 2.99999 15.74 2.99999 17.06C2.99999 18.06 2.80999 19.04 2.48999 19.98C5.93999 19.93 7.13999 19.34 9.02999 18.49Z" fill="#44911B"/>
          <path d="M18.2363 23.9L18.8363 26H14L13.26 23.9H18.2363ZM18.26 22.9H13.26C12.94 22.9 12.63 23.06 12.44 23.32C12.25 23.58 12.21 23.92 12.31 24.23L13.05 26.33C13.2 26.73 13.58 27 14 27H18.86C19.17 27 19.47 26.85 19.66 26.6C19.85 26.35 19.91 26.02 19.82 25.72L19.22 23.62C19.1 23.2 18.7 22.9 18.26 22.9Z" fill="#9B9B9B"/>
          <path d="M12.8641 22.558C12.6235 21.686 12.8241 21.2048 14.0569 20.6636C14.9425 20.2748 16.1452 19.7816 16.788 19.5181C16.8611 19.4881 16.927 19.4611 16.9844 19.4375L16.668 18.3359L12.2327 20.3428L12.8641 22.558ZM17.8706 24.639L17.8706 24.639C17.7836 24.3379 17.6566 23.8981 16.7915 23.8981H18.2361L18.845 25.9966H17.2276C18.3078 25.9966 17.9966 25.035 17.8991 24.7336L17.897 24.7271C17.8881 24.6996 17.8796 24.67 17.8706 24.639ZM14.4242 23.9014C13.9883 23.9014 13.9882 24.3323 14.1454 24.8088C14.4518 25.7374 15.0173 25.9951 15.3113 26.0052H14.0034L13.2532 23.9014H14.4242Z" fill="#5C2614"/>
        </g>
      </g>
      <g transform="translate(0, 90)">
        <rect x="-200" y="-15" width="400" height="228" rx="18" fill="var(--accent-3)" fill-opacity="1.0" stroke="var(--accent-3)" id="ITEM_3_BG" stroke-width="3"/>
        <rect id="ITEM_3_TEXT_BG" x="-208.0" y="-9.0" width="416.0" height="228.0" rx="22" fill="var(--panel)" fill-opacity="0.94" stroke="none" stroke-opacity="0" stroke-width="1.5"/>
        <text id="ITEM_3_HEAD" text-anchor="middle" font-weight="bold" font-size="24" fill="var(--inverse-text)" x="0.0" y="6.0" data-bg-id="ITEM_3_BG" fill-opacity="1.0" style="font-size: 31px; font-family: 'Segoe UI Variable Display', 'Aptos Display', 'Inter', 'Segoe UI', Helvetica, Arial, sans-serif; font-weight: 700; font-kerning: normal; font-feature-settings: &quot;kern&quot; 1, &quot;liga&quot; 1; letter-spacing:-0.4px;" data-final-font-size="31">
          <tspan x="0.0" dy="29.52px">Military Testimony</tspan>
        </text>
        <rect id="ITEM_3_HEAD_FRAME" x="-190" y="6" width="380" height="42" fill="none"/>
        <text id="ITEM_3_BODY" text-anchor="middle" font-size="18" fill="var(--primary-text)" x="0.0" y="52.0" data-bg-id="ITEM_3_TEXT_BG" opacity="0.9" style="font-size: 23px; font-family: 'Segoe UI Variable Text', 'Aptos', 'Inter', 'Segoe UI', Helvetica, Arial, sans-serif; font-weight: 400; font-kerning: normal; font-feature-settings: &quot;kern&quot; 1, &quot;liga&quot; 1;" data-final-font-size="23">
          <tspan x="0.0" dy="37.42px">Reports from trained personnel</tspan>
          <tspan x="0.0" dy="26.45px">in controlled environments</tspan>
        </text>
        <rect id="ITEM_3_BODY_FRAME" x="-190" y="52" width="380" height="148" fill="none"/>
      </g>
    </g>
    <!-- Child Node 3 (ITEM_4) -->
    <g transform="translate(1190, 532)">
      <circle id="ITEM_4_PAD" cx="0" cy="0" r="62" fill="var(--icon-pad-bg)" stroke="var(--accent-1)" opacity="1" fill-opacity="0.9" stroke-width="2" stroke-opacity="0.72" data-badge-layer="pad"/>
      <circle id="ITEM_4_PAD_INNER" cx="0" cy="0" r="48.36" fill="var(--accent-1)" fill-opacity="0.12" stroke="none" data-badge-layer="tint"/>
      <circle cx="0" cy="0" r="50" fill="none" stroke="var(--accent-4)" stroke-width="3" stroke-dasharray="6 4" filter="url(#svg69588b21-shadow)" display="none" data-suppressed-decoration="redundant-badge-ring"/>
      <g id="ITEM_4_ICON" transform="translate(-38, -38)" data-icon-size="76" stroke-linecap="round" stroke-linejoin="round" data-badge-treatment="clean">
        <g transform="translate(-19.315555555555555,-19.315555555555555) scale(4.776296296296296)" vector-effect="non-scaling-stroke" stroke-width="2.62" stroke-linecap="round" stroke-linejoin="round" stroke-opacity="1.0">
          <path d="M19 9V6a2 2 0 0 0-2-2H7a2 2 0 0 0-2 2v3" vector-effect="non-scaling-stroke" fill="none" stroke="#f1f5f9"/>
          <path d="M3 16a2 2 0 0 0 2 2h14a2 2 0 0 0 2-2v-5a2 2 0 0 0-4 0v1.5a.5.5 0 0 1-.5.5h-9a.5.5 0 0 1-.5-.5V11a2 2 0 0 0-4 0z" vector-effect="non-scaling-stroke" fill="none" stroke="#f1f5f9"/>
          <path d="M5 18v2" vector-effect="non-scaling-stroke" fill="none" stroke="#f1f5f9"/>
          <path d="M19 18v2" vector-effect="non-scaling-stroke" fill="none" stroke="#f1f5f9"/>
        </g>
      </g>
      <g transform="translate(0, 90)">
        <rect x="-200" y="-15" width="400" height="228" rx="18" fill="var(--accent-1)" fill-opacity="1.0" stroke="var(--accent-4)" id="ITEM_4_BG" stroke-width="3"/>
        <rect id="ITEM_4_TEXT_BG" x="-208.0" y="-9.0" width="416.0" height="228.0" rx="22" fill="var(--panel)" fill-opacity="0.94" stroke="none" stroke-opacity="0" stroke-width="1.5"/>
        <text id="ITEM_4_HEAD" text-anchor="middle" font-weight="bold" font-size="24" fill="var(--inverse-text)" x="0.0" y="6.0" data-bg-id="ITEM_4_BG" fill-opacity="1.0" style="font-size: 31px; font-family: 'Segoe UI Variable Display', 'Aptos Display', 'Inter', 'Segoe UI', Helvetica, Arial, sans-serif; font-weight: 700; font-kerning: normal; font-feature-settings: &quot;kern&quot; 1, &quot;liga&quot; 1; letter-spacing:-0.4px;" data-final-font-size="31">
          <tspan x="0.0" dy="29.52px">Retrospective Accounts</tspan>
        </text>
        <rect id="ITEM_4_HEAD_FRAME" x="-190" y="6" width="380" height="42" fill="none"/>
        <text id="ITEM_4_BODY" text-anchor="middle" font-size="18" fill="var(--primary-text)" x="0.0" y="52.0" data-bg-id="ITEM_4_TEXT_BG" opacity="0.9" style="font-size: 23px; font-family: 'Segoe UI Variable Text', 'Aptos', 'Inter', 'Segoe UI', Helvetica, Arial, sans-serif; font-weight: 400; font-kerning: normal; font-feature-settings: &quot;kern&quot; 1, &quot;liga&quot; 1;" data-final-font-size="23">
          <tspan x="0.0" dy="37.42px">Personal memories shared decades</tspan>
          <tspan x="0.0" dy="26.45px">after the original event</tspan>
        </text>
        <rect id="ITEM_4_BODY_FRAME" x="-190" y="52" width="380" height="148" fill="none"/>
      </g>
    </g>
    <!-- Child Node 4 (ITEM_5) -->
    <g transform="translate(1650, 532)">
      <circle id="ITEM_5_PAD" cx="0" cy="0" r="62" fill="var(--icon-pad-bg)" stroke="var(--accent-2)" opacity="1" fill-opacity="0.9" stroke-width="2" stroke-opacity="0.72" data-badge-layer="pad"/>
      <circle id="ITEM_5_PAD_INNER" cx="0" cy="0" r="48.36" fill="var(--accent-2)" fill-opacity="0.12" stroke="none" data-badge-layer="tint"/>
      <circle cx="0" cy="0" r="50" fill="none" stroke="var(--accent-5)" stroke-width="3" stroke-dasharray="6 4" filter="url(#svg69588b21-shadow)" display="none" data-suppressed-decoration="redundant-badge-ring"/>
      <g id="ITEM_5_ICON" transform="translate(-38, -38)" data-icon-size="76" stroke-linecap="round" stroke-linejoin="round" data-badge-treatment="clean">
        <g transform="translate(-14.45830508474577,-14.458305084745765) scale(4.371525423728814)" vector-effect="non-scaling-stroke" stroke-width="2.62" stroke-linecap="round" stroke-linejoin="round" stroke-opacity="1.0">
          <path d="M10 10h4" vector-effect="non-scaling-stroke" fill="none" stroke="#f1f5f9"/>
          <path d="M19 7V4a1 1 0 0 0-1-1h-2a1 1 0 0 0-1 1v3" vector-effect="non-scaling-stroke" fill="none" stroke="#f1f5f9"/>
          <path d="M20 21a2 2 0 0 0 2-2v-3.851c0-1.39-2-2.962-2-4.829V8a1 1 0 0 0-1-1h-4a1 1 0 0 0-1 1v11a2 2 0 0 0 2 2z" vector-effect="non-scaling-stroke" fill="none" stroke="#f1f5f9"/>
          <path d="M 22 16 L 2 16" vector-effect="non-scaling-stroke" fill="none" stroke="#f1f5f9"/>
          <path d="M4 21a2 2 0 0 1-2-2v-3.851c0-1.39 2-2.962 2-4.829V8a1 1 0 0 1 1-1h4a1 1 0 0 1 1 1v11a2 2 0 0 1-2 2z" vector-effect="non-scaling-stroke" fill="none" stroke="#f1f5f9"/>
          <path d="M9 7V4a1 1 0 0 0-1-1H6a1 1 0 0 0-1 1v3" vector-effect="non-scaling-stroke" fill="none" stroke="#f1f5f9"/>
        </g>
      </g>
      <g transform="translate(0, 90)">
        <rect x="-200" y="-15" width="400" height="228" rx="18" fill="var(--accent-2)" fill-opacity="1.0" stroke="var(--accent-5)" id="ITEM_5_BG" stroke-width="3"/>
        <rect id="ITEM_5_TEXT_BG" x="-208.0" y="-9.0" width="416.0" height="228.0" rx="22" fill="var(--panel)" fill-opacity="0.94" stroke="none" stroke-opacity="0" stroke-width="1.5"/>
        <text id="ITEM_5_HEAD" text-anchor="middle" font-weight="bold" font-size="24" fill="var(--inverse-text)" x="0.0" y="6.0" data-bg-id="ITEM_5_BG" fill-opacity="1.0" style="font-size: 31px; font-family: 'Segoe UI Variable Display', 'Aptos Display', 'Inter', 'Segoe UI', Helvetica, Arial, sans-serif; font-weight: 700; font-kerning: normal; font-feature-settings: &quot;kern&quot; 1, &quot;liga&quot; 1; letter-spacing:-0.4px;" data-final-font-size="31">
          <tspan x="0.0" dy="29.52px">Civilian Sightings</tspan>
        </text>
        <rect id="ITEM_5_HEAD_FRAME" x="-190" y="6" width="380" height="42" fill="none"/>
        <text id="ITEM_5_BODY" text-anchor="middle" font-size="18" fill="var(--primary-text)" x="0.0" y="52.0" data-bg-id="ITEM_5_TEXT_BG" opacity="0.9" style="font-size: 23px; font-family: 'Segoe UI Variable Text', 'Aptos', 'Inter', 'Segoe UI', Helvetica, Arial, sans-serif; font-weight: 400; font-kerning: normal; font-feature-settings: &quot;kern&quot; 1, &quot;liga&quot; 1;" data-final-font-size="23">
          <tspan x="0.0" dy="37.42px">Casual observations lacking</tspan>
          <tspan x="0.0" dy="26.45px">professional training or context</tspan>
        </text>
        <rect id="ITEM_5_BODY_FRAME" x="-190" y="52" width="380" height="148" fill="none"/>
      </g>
    </g>
  </g>
  <text id="SOURCE_NOTE" x="134.0" y="1058.0" fill="var(--muted-text)" opacity="1" style="font-family: var(--font-family); font-size: 20px;">Source: Malmstrom AFB Missile Incident | UAP Case Research | UAPRAD</text>
</svg>
