<?xml version='1.0' encoding='utf-8'?>
<svg xmlns="http://www.w3.org/2000/svg" width="1920" height="1080" viewBox="0 0 1920 1080" data-theme="light" data-semantic-intent="uncertain_compare" data-relation-type="hypothesis_comparison" data-site-visual-identity="signal-cobalt">
  <style>
        @font-face {
            font-family: 'Inter';
            src: url('assets/fonts/Inter-Regular.ttf') format('truetype');
            font-weight: 400;
            font-style: normal;
            font-display: swap;
        }
        @font-face {
            font-family: 'Inter';
            src: url('assets/fonts/Inter-Bold.ttf') format('truetype');
            font-weight: 600;
            font-style: normal;
            font-display: swap;
        }
        @font-face {
            font-family: 'Inter';
            src: url('assets/fonts/Inter-Bold.ttf') format('truetype');
            font-weight: 800;
            font-style: normal;
            font-display: swap;
        }
        
:root {
    --background: #f8fafc;
    --panel: #ffffff;
    --primary-text: #0f172a;
    --muted-text: #64748b;
    --inverse-text: #ffffff;
    --border: #e2e8f0;
    --shadow-color: #000000;
    --icon-pad-bg: #1e293b;
    --art-glow: #0891b2;
    --art-glow-opacity: 0.10;
    --art-sheen: #ffffff;
    --art-sheen-opacity: 0.34;
    --art-shadow: #0f172a;
    --art-shadow-opacity: 0.14;
    --art-muted-line: #94a3b8;
    --art-panel-tint: #f1f5f9;
    --semantic-risk: #b91c1c;
    --semantic-warning: #c2410c;
    --semantic-uncertain: #a16207;
    --semantic-evidence: #1d4ed8;
    --semantic-claim: #6d28d9;
    --semantic-positive: #15803d;
    --semantic-outcome: #0e7490;
    --font-family: 'Inter', 'Segoe UI', 'Kalam', Roboto, Helvetica, Arial, sans-serif;
    --radius-xl: 16px;
    --font-family-headline: 'Segoe UI Variable Display', 'Aptos Display', 'Inter', 'Segoe UI', Helvetica, Arial, sans-serif;
    --font-family-body: 'Segoe UI Variable Text', 'Aptos', 'Inter', 'Segoe UI', Helvetica, Arial, sans-serif;
    --font-heading: var(--font-family-headline);
    --font-body: var(--font-family-body);
    --font-size-h1: 64px;
    --font-size-h2: 42px;
    --font-size-h3: 29px;
    --font-size-body: 21px;
    --font-size-caption: 17px;
    --secondary-text: var(--muted-text);
    --panel-border: var(--border);
    --font-weight-normal: 400;
    --font-weight-medium: 500;
    --font-weight-semibold: 600;
    --font-weight-bold: 700;
    --spacing-gutter-pct: 0.07;
    --spacing-top-pct: 0.15;
    --spacing-bottom-pct: 0.07;
    --spacing-title-y-pct: 0.055;
    --accent-1: #1d4ed8;
    --accent-2: #2563eb;
    --accent-3: #4f46e5;
    --accent-4: #6d28d9;
    --accent-5: #0369a1;
    --accent-6: #c2410c;
}
:root[data-theme="dark"] {
    --background: #0f172a;
    --panel: #1e293b;
    --primary-text: #f1f5f9;
    --muted-text: #94a3b8;
    --inverse-text: #0f172a;
    --border: #334155;
    --shadow-color: #000000;
    --icon-pad-bg: #1e293b;
    --art-glow: #7dd3fc;
    --art-glow-opacity: 0.18;
    --art-sheen: #ffffff;
    --art-sheen-opacity: 0.18;
    --art-shadow: #000000;
    --art-shadow-opacity: 0.28;
    --art-muted-line: #64748b;
    --art-panel-tint: #1e293b;
    --semantic-risk: #f87171;
    --semantic-warning: #fb923c;
    --semantic-uncertain: #fbbf24;
    --semantic-evidence: #60a5fa;
    --semantic-claim: #c084fc;
    --semantic-positive: #4ade80;
    --semantic-outcome: #22d3ee;
    --accent-1: #93c5fd;
    --accent-2: #60a5fa;
    --accent-3: #818cf8;
    --accent-4: #a78bfa;
    --accent-5: #38bdf8;
    --accent-6: #fb923c;
}
:root[data-theme="light"] {
    --background: #f8fafc;
    --panel: #ffffff;
    --primary-text: #0f172a;
    --muted-text: #64748b;
    --inverse-text: #ffffff;
    --border: #e2e8f0;
    --shadow-color: #000000;
    --icon-pad-bg: #1e293b;
    --art-glow: #0891b2;
    --art-glow-opacity: 0.10;
    --art-sheen: #ffffff;
    --art-sheen-opacity: 0.34;
    --art-shadow: #0f172a;
    --art-shadow-opacity: 0.14;
    --art-muted-line: #94a3b8;
    --art-panel-tint: #f1f5f9;
    --semantic-risk: #b91c1c;
    --semantic-warning: #c2410c;
    --semantic-uncertain: #a16207;
    --semantic-evidence: #1d4ed8;
    --semantic-claim: #6d28d9;
    --semantic-positive: #15803d;
    --semantic-outcome: #0e7490;
    --accent-1: #1d4ed8;
    --accent-2: #2563eb;
    --accent-3: #4f46e5;
    --accent-4: #6d28d9;
    --accent-5: #0369a1;
    --accent-6: #c2410c;
}</style>
  <rect x="0" y="0" width="1.92E+3" height="1.08E+3" fill="#252a34" stroke="none" id="programmatic_background"/>
  <line id="HEADER_DECOR" x1="960.0" x2="1080.0" y1="135.0" y2="135.0" stroke="var(--accent-1)" stroke-width="6" stroke-linecap="round"/>
  <defs>
    <pattern id="svgf18304b7-napkin-hatch" patternUnits="userSpaceOnUse" width="12" height="12">
      <path d="M -3 12 L 12 -3 M 0 15 L 15 0" fill="none" stroke="var(--primary-text)" stroke-width="1" stroke-opacity="0.05"/>
    </pattern>
    <filter id="svgf18304b7-shadow" x="-30%" y="-30%" width="160%" height="160%">
      <feDropShadow dx="0" dy="3" stdDeviation="4" flood-color="#000000" flood-opacity="0.10"/>
      <feDropShadow dx="0" dy="10" stdDeviation="16" flood-color="#000000" flood-opacity="0.12"/>
    </filter>
    <radialGradient id="svgf18304b7-universal-edge-vignette" cx="50%" cy="50%" r="72%">
      <stop offset="0%" stop-color="var(--background)" stop-opacity="0"/>
      <stop offset="72%" stop-color="var(--background)" stop-opacity="0.12"/>
      <stop offset="100%" stop-color="var(--primary-text)" stop-opacity="0.08"/>
    </radialGradient>
    <linearGradient id="svgf18304b7-universal-surface-sheen" x1="0%" y1="0%" x2="100%" y2="100%">
      <stop offset="0%" stop-color="var(--art-sheen)" stop-opacity="var(--art-sheen-opacity)"/>
      <stop offset="46%" stop-color="var(--art-sheen)" stop-opacity="0.035"/>
      <stop offset="100%" stop-color="var(--art-panel-tint)" stop-opacity="0.14"/>
    </linearGradient>
    <radialGradient id="svgf18304b7-universal-icon-aura" cx="50%" cy="42%" r="64%">
      <stop offset="0%" stop-color="var(--art-glow)" stop-opacity="var(--art-glow-opacity)"/>
      <stop offset="100%" stop-color="var(--background)" stop-opacity="0"/>
    </radialGradient>
    <filter id="svgf18304b7-text-glow" x="-20%" y="-20%" width="140%" height="140%">
      <feDropShadow dx="0" dy="0" stdDeviation="2" flood-color="#000000" flood-opacity="0.4"/>
    </filter>
    <marker id="svgf18304b7-arrowhead" markerWidth="10" markerHeight="7" refX="9" refY="3.5" orient="auto" markerUnits="strokeWidth">
      <polygon points="0 0, 10 3.5, 0 7" fill="var(--muted-text)" opacity="0.6"/>
    </marker>
  </defs>
  <rect id="CANVAS_BG" width="100%" height="100%" fill="var(--background)"/>
  <rect width="100%" height="100%" fill="url(#svgf18304b7-napkin-hatch)"/>
  <rect id="UNIVERSAL_EDGE_VIGNETTE" width="100%" height="100%" fill="url(#svgf18304b7-universal-edge-vignette)" opacity="0.62"/>
  <text id="TITLE" x="960.0" y="59" text-anchor="middle" font-weight="800" font-size="56" fill="#0f172a" style="font-size: 69px; font-family: 'Segoe UI Variable Display', 'Aptos Display', 'Inter', 'Segoe UI', Helvetica, Arial, sans-serif; font-weight: 800; font-kerning: normal; font-feature-settings: &quot;kern&quot; 1, &quot;liga&quot; 1; letter-spacing:-1.2px;" data-final-font-size="69">
    <tspan x="960.0" dy="70.47px">Nuclear Site UFO Interpretations</tspan>
  </text>
  <rect id="TITLE_FRAME" x="134" y="59" width="1652" height="103" fill="none"/>
  <g id="FIELD">
    <rect x="190" y="248" width="660" height="300" rx="34" fill="var(--accent-1)" fill-opacity="0.08" stroke="var(--accent-1)" stroke-width="2" stroke-opacity="0.22"/>
    <rect x="1070" y="248" width="660" height="300" rx="34" fill="var(--accent-2)" fill-opacity="0.08" stroke="var(--accent-2)" stroke-width="2" stroke-opacity="0.22"/>
    <rect x="190" y="648" width="660" height="300" rx="34" fill="var(--accent-3)" fill-opacity="0.08" stroke="var(--accent-3)" stroke-width="2" stroke-opacity="0.18"/>
    <rect x="1070" y="648" width="660" height="300" rx="34" fill="var(--accent-4)" fill-opacity="0.08" stroke="var(--accent-4)" stroke-width="2" stroke-opacity="0.18"/>
    <line x1="960" y1="228" x2="960" y2="972" stroke="var(--primary-text)" stroke-width="11" stroke-opacity="0.20"/>
    <line x1="176" y1="600" x2="1744" y2="600" stroke="var(--primary-text)" stroke-width="11" stroke-opacity="0.20"/>
    <path d="M 960 534 L 1026 600 L 960 666 L 894 600 Z" fill="var(--panel)" fill-opacity="0.94" stroke="var(--primary-text)" stroke-width="4" stroke-opacity="0.28"/>
    <circle cx="960" cy="600" r="44" fill="var(--background)" stroke="var(--primary-text)" stroke-width="4"/>
    <g transform="translate(520, 392)">
      <rect id="ITEM_1_BG" x="-310" y="-126" width="620" height="252" rx="32" fill="var(--panel)" fill-opacity="0.95" stroke="var(--accent-1)" stroke-width="3" filter="url(#svgf18304b7-shadow)"/>
      <rect x="-310" y="-126" width="620" height="252" rx="18" fill="url(#svgf18304b7-universal-surface-sheen)" opacity="0.84"/>
      <rect x="254" y="-92" width="18" height="184" rx="9" fill="var(--accent-1)" fill-opacity="0.22"/>
      <circle cx="224" cy="-24" r="90" fill="none" stroke="var(--accent-1)" stroke-width="2.5" stroke-opacity="0.14"/>
      <text id="ITEM_1_HEAD" x="-244.0" y="-96.0" text-anchor="start" font-weight="700" font-size="34" fill="var(--semantic-uncertain)" data-bg-id="ITEM_1_BG" fill-opacity="1.0" style="font-size: 31px; font-family: 'Segoe UI Variable Display', 'Aptos Display', 'Inter', 'Segoe UI', Helvetica, Arial, sans-serif; font-weight: 700; font-kerning: normal; font-feature-settings: &quot;kern&quot; 1, &quot;liga&quot; 1; letter-spacing:-0.4px;" data-final-font-size="31">
        <tspan x="-244.0" dy="28.52px">Official Conclusion</tspan>
      </text>
      <rect id="ITEM_1_HEAD_FRAME" x="-244" y="-96" width="400" height="40" fill="none"/>
      <text id="ITEM_1_BODY" x="-244.0" y="-4.0" text-anchor="start" font-size="24" fill="var(--primary-text)" opacity="0.92" data-bg-id="ITEM_1_BG" style="font-size: 23px; font-family: 'Segoe UI Variable Text', 'Aptos', 'Inter', 'Segoe UI', Helvetica, Arial, sans-serif; font-weight: 400; font-kerning: normal; font-feature-settings: &quot;kern&quot; 1, &quot;liga&quot; 1;" data-final-font-size="23">
        <tspan x="-244.0" dy="33.42px">No evidence of extraterrestrial threat</tspan>
        <tspan x="-244.0" dy="26.45px">to national security found in records</tspan>
      </text>
      <rect id="ITEM_1_BODY_FRAME" x="-244" y="-4" width="430" height="128" fill="none"/>
      <circle id="ITEM_1_PAD" cx="224" cy="-24" r="52" fill="var(--icon-pad-bg)" opacity="1" fill-opacity="0.9" stroke-width="2" stroke="var(--semantic-uncertain)" stroke-opacity="0.72" data-badge-layer="pad"/>
      <circle id="ITEM_1_PAD_INNER" cx="224" cy="-24" r="40.56" fill="var(--semantic-uncertain)" fill-opacity="0.12" stroke="none" data-badge-layer="tint"/>
      <circle cx="224" cy="-24" r="42" fill="none" stroke="var(--accent-1)" stroke-width="2.5" stroke-dasharray="6 4" display="none" data-suppressed-decoration="redundant-badge-ring"/>
      <g id="ITEM_1_ICON" transform="translate(182, -66)" data-icon-size="84" stroke-linecap="round" stroke-linejoin="round" data-badge-treatment="clean">
        <g transform="translate(-6.0,-13.5) scale(3.0)">
          <path d="M3.94531 26.7454V23.0032H7.96875V27.0297C7.96875 28.2922 6.03125 28.9954 5.23438 28.9954H2.53125C2.35417 29.0318 2 28.8704 2 28.4954C2 28.1204 2.27747 28.0621 2.53125 28.0266C3.3125 27.9172 3.80469 27.2454 3.94531 26.7454Z" fill="#636363"/>
          <path d="M11.78 29.0003C6.38 29.0003 2 24.6203 2 19.2203V14.5803C2 11.0003 4.86 8.03025 8.44 8.00025C11.89 7.97025 14.72 10.6203 14.98 14.0003C15.1512 15.5413 16.1247 16.8478 17.4633 17.5182L19 19L20.7296 17.8299C22.6308 17.2831 24 15.5007 24 13.4403V11.1303C24 10.4503 24.71 10.0103 25.33 10.3103C26.32 10.8003 27 11.8203 27 13.0003C27 11.8203 27.68 10.8003 28.67 10.3103C29.29 10.0003 30 10.4503 30 11.1303V14.8803C30 18.1193 29.2429 21.1306 27.7931 23.5332L23 27L18.25 28.9983C18.1671 28.9997 18.0837 29.0004 18 29.0003L15.125 29L12.5 28.5L11.78 29.0003Z" fill="#9B9B9B"/>
          <path d="M7.11 14.0002H10.02C10.98 14.0002 11.76 14.7802 11.75 15.7402C11.75 16.7002 10.97 17.4802 10.01 17.4802C9.41 17.4802 8.87 17.1702 8.56 16.7002C8.25 17.1702 7.72 17.4802 7.11 17.4802C6.15 17.4802 5.37 16.7002 5.37 15.7402C5.37 14.7802 6.15 14.0002 7.11 14.0002Z" fill="#D3D3D3"/>
          <path d="M11.61 24.9904V21.2304C11.61 19.5604 10.29 18.1604 8.61999 18.1304C6.90999 18.1004 5.51999 19.4804 5.51999 21.1704V22.7504C5.51999 26.1804 8.27999 28.9704 11.71 29.0004H15.63C13.41 29.0004 11.61 27.2004 11.61 24.9904Z" fill="#D3D3D3"/>
          <path d="M16.62 22.3982V26.5002C16.62 27.3202 17.29 27.9902 18.11 27.9902C18.39 27.9902 18.61 28.2102 18.61 28.4902C18.61 28.7664 18.3958 28.9938 18.1211 28.9998C22.56 28.9666 25.8532 26.7911 27.8321 23.468L28.1172 22.9648C27.8242 23.21 27.3078 23.6067 27.0446 23.8339C25.1684 25.4537 23.8531 26.5892 20.3125 26.8266C18.0593 26.9297 17.342 24.5942 16.9235 23.2313C16.8083 22.8562 16.7157 22.5548 16.62 22.3982Z" fill="#D3D3D3"/>
          <path d="M18.1033 28.9999H16.4812L18 29.0002C18.0345 29.0002 18.069 29.0001 18.1033 28.9999Z" fill="#D3D3D3"/>
          <path d="M6.81 13.2102C6.81 13.6244 6.47421 13.9602 6.06 13.9602C5.64578 13.9602 5.31 13.6244 5.31 13.2102C5.31 12.796 5.64578 12.4602 6.06 12.4602C6.47421 12.4602 6.81 12.796 6.81 13.2102Z" fill="#1C1C1C"/>
          <path d="M11.07 13.9602C11.4842 13.9602 11.82 13.6244 11.82 13.2102C11.82 12.796 11.4842 12.4602 11.07 12.4602C10.6558 12.4602 10.32 12.796 10.32 13.2102C10.32 13.6244 10.6558 13.9602 11.07 13.9602Z" fill="#1C1C1C"/>
          <path d="M8.18999 15.6502L7.38999 14.9902C7.25999 14.8802 7.18999 14.7202 7.18999 14.5602C7.18999 14.2502 7.43999 14.0002 7.74999 14.0002H9.37999C9.68999 14.0002 9.93999 14.2502 9.93999 14.5602C9.93999 14.7302 9.85999 14.8902 9.73999 14.9902L8.93999 15.6502C8.71999 15.8302 8.40999 15.8302 8.18999 15.6502Z" fill="#1C1C1C"/>
          <path d="M20.89 18.4903C20.89 19.5203 20.06 20.3503 19.03 20.3503C18 20.3503 17.17 19.5203 17.16 18.4903C17.16 18.1303 17.26 17.8003 17.44 17.5103C18.06 17.8203 18.75 18.0003 19.49 18.0003H19.62C20.02 17.9903 20.4 17.9303 20.76 17.8203C20.84 18.0203 20.89 18.2503 20.89 18.4903Z" fill="#636363"/>
          <path d="M24.71 19.4903C24.71 20.1199 24.1996 20.6303 23.57 20.6303C22.9404 20.6303 22.43 20.1199 22.43 19.4903C22.43 18.8607 22.9404 18.3503 23.57 18.3503C24.1996 18.3503 24.71 18.8607 24.71 19.4903Z" fill="#636363"/>
        </g>
      </g>
    </g>
    <g transform="translate(1400, 392)">
      <rect id="ITEM_2_BG" x="-310" y="-126" width="620" height="252" rx="32" fill="var(--panel)" fill-opacity="0.95" stroke="var(--accent-2)" stroke-width="3" filter="url(#svgf18304b7-shadow)"/>
      <rect x="-310" y="-126" width="620" height="252" rx="18" fill="url(#svgf18304b7-universal-surface-sheen)" opacity="0.84"/>
      <rect x="-272" y="-92" width="18" height="184" rx="9" fill="var(--accent-2)" fill-opacity="0.22"/>
      <circle cx="-224" cy="-24" r="90" fill="none" stroke="var(--accent-2)" stroke-width="2.5" stroke-opacity="0.14"/>
      <text id="ITEM_2_HEAD" x="244.0" y="-96.0" text-anchor="end" font-weight="700" font-size="34" fill="var(--semantic-uncertain)" data-bg-id="ITEM_2_BG" fill-opacity="1.0" style="font-size: 31px; font-family: 'Segoe UI Variable Display', 'Aptos Display', 'Inter', 'Segoe UI', Helvetica, Arial, sans-serif; font-weight: 700; font-kerning: normal; font-feature-settings: &quot;kern&quot; 1, &quot;liga&quot; 1; letter-spacing:-0.4px;" data-final-font-size="31">
        <tspan x="244.0" dy="28.52px">Retrospective Claims</tspan>
      </text>
      <rect id="ITEM_2_HEAD_FRAME" x="-156" y="-96" width="400" height="40" fill="none"/>
      <text id="ITEM_2_BODY" x="274.0" y="-4.0" text-anchor="end" font-size="24" fill="var(--primary-text)" opacity="0.92" data-bg-id="ITEM_2_BG" style="font-size: 23px; font-family: 'Segoe UI Variable Text', 'Aptos', 'Inter', 'Segoe UI', Helvetica, Arial, sans-serif; font-weight: 400; font-kerning: normal; font-feature-settings: &quot;kern&quot; 1, &quot;liga&quot; 1;" data-final-font-size="23">
        <tspan x="274.0" dy="33.42px">Former personnel allege UFOs disabled</tspan>
        <tspan x="274.0" dy="26.45px">nuclear missiles at Malmstrom</tspan>
      </text>
      <rect id="ITEM_2_BODY_FRAME" x="-156" y="-4" width="430" height="128" fill="none"/>
      <circle id="ITEM_2_PAD" cx="-224" cy="-24" r="52" fill="var(--icon-pad-bg)" opacity="1" fill-opacity="0.9" stroke-width="2" stroke="var(--semantic-uncertain)" stroke-opacity="0.72" data-badge-layer="pad"/>
      <circle id="ITEM_2_PAD_INNER" cx="-224" cy="-24" r="40.56" fill="var(--semantic-uncertain)" fill-opacity="0.12" stroke="none" data-badge-layer="tint"/>
      <circle cx="-224" cy="-24" r="42" fill="none" stroke="var(--accent-2)" stroke-width="2.5" stroke-dasharray="6 4" display="none" data-suppressed-decoration="redundant-badge-ring"/>
      <g id="ITEM_2_ICON" transform="translate(-266, -66)" data-icon-size="84" stroke-linecap="round" stroke-linejoin="round" data-badge-treatment="clean">
        <g transform="translate(-5.946902654867257,-5.203539823008851) scale(2.9734513274336285)">
          <path d="M29.2001 2.94972C28.253 2.00263 26.4999 1.9525 25.3817 2.52547C24.4693 2.83877 23.5081 3.19209 22.5278 3.58828L22.5383 3.59883C19.9627 4.69286 16.1108 6.63769 13.0279 9.49984C10.8637 11.5091 9.62366 13.0559 8.79313 14.4647L3.49489 16.4149C2.80991 16.6671 2.6171 17.5444 3.13322 18.0605C6.84572 21.773 10.5582 25.4855 14.2707 29.198C14.7868 29.7141 15.6641 29.5213 15.9163 28.8363L18.1197 22.8504C19.7284 21.8921 21.3425 20.6853 23.0279 18.9999C25.4183 16.6095 27.3936 12.4408 28.5413 9.64309L28.5496 9.65145C28.9506 8.66094 29.3079 7.68963 29.6243 6.76812C30.1973 5.64991 30.3642 4.11384 29.2001 2.94972Z" fill="#CA0B4A"/>
          <path d="M23.2987 4.3645C20.7818 5.4041 16.8206 7.34324 13.7083 10.2327C11.6937 12.103 10.5374 13.5272 9.76899 14.7821C8.99995 16.0381 8.59391 17.1628 8.10621 18.5226L8.10371 18.5296C7.93354 19.0041 7.75311 19.5072 7.54517 20.0441L12.1006 24.5996C15.7031 23.1209 18.8412 21.7724 22.3208 18.2928C24.6722 15.9414 26.6597 11.6505 27.7751 8.87168L23.2987 4.3645Z" fill="#F4F4F4"/>
          <path d="M24.5278 11.25C24.5278 13.0449 23.0727 14.5 21.2778 14.5C19.4828 14.5 18.0278 13.0449 18.0278 11.25C18.0278 9.45507 19.4828 8 21.2778 8C23.0727 8 24.5278 9.45507 24.5278 11.25Z" fill="#9B9B9B"/>
          <path d="M23.5278 11.25C23.5278 12.4926 22.5204 13.5 21.2778 13.5C20.0351 13.5 19.0278 12.4926 19.0278 11.25C19.0278 10.0074 20.0351 9 21.2778 9C22.5204 9 23.5278 10.0074 23.5278 11.25Z" fill="#83CBFF"/>
          <path d="M2.45122 29.6108C1.74411 28.9037 2.02779 24 4.52777 23C4.52777 23 7.02777 22 8.63878 23.6005C10.2498 25.2011 9.52776 26.9999 9.52776 26.9999C8.82068 29.1212 5.81033 29.9645 5.45679 29.6109C5.26153 29.4157 5.61314 29.0602 5.45679 28.9038C5.30045 28.7475 5.05904 28.9259 4.39613 29.2574C3.92473 29.4931 2.73406 29.8937 2.45122 29.6108Z" fill="#FF8257"/>
          <path d="M6.08839 21.0607C6.67417 20.4749 7.62392 20.4749 8.20971 21.0607L11.7452 24.5962C12.331 25.182 12.331 26.1317 11.7452 26.7175C11.1595 27.3033 10.2097 27.3033 9.62392 26.7175L6.08839 23.182C5.5026 22.5962 5.5026 21.6465 6.08839 21.0607Z" fill="#533566"/>
          <path d="M15.5351 18.722C15.977 17.5214 14.8098 16.3542 13.6092 16.7961L6.49489 19.4149C5.80991 19.6671 5.6171 20.5444 6.13322 21.0605L11.2707 26.198C11.7868 26.7141 12.6641 26.5213 12.9163 25.8363L15.5351 18.722Z" fill="#F92F60"/>
        </g>
      </g>
    </g>
    <g transform="translate(520, 808)">
      <rect id="ITEM_3_BG" x="-310" y="-126" width="620" height="252" rx="32" fill="var(--panel)" fill-opacity="0.95" stroke="var(--accent-3)" stroke-width="3" filter="url(#svgf18304b7-shadow)"/>
      <rect x="-310" y="-126" width="620" height="252" rx="18" fill="url(#svgf18304b7-universal-surface-sheen)" opacity="0.84"/>
      <rect x="254" y="-92" width="18" height="184" rx="9" fill="var(--accent-3)" fill-opacity="0.22"/>
      <circle cx="224" cy="-24" r="90" fill="none" stroke="var(--accent-3)" stroke-width="2.5" stroke-opacity="0.14"/>
      <text id="ITEM_3_HEAD" x="-244.0" y="-96.0" text-anchor="start" font-weight="700" font-size="34" fill="var(--semantic-uncertain)" data-bg-id="ITEM_3_BG" fill-opacity="1.0" style="font-size: 31px; font-family: 'Segoe UI Variable Display', 'Aptos Display', 'Inter', 'Segoe UI', Helvetica, Arial, sans-serif; font-weight: 700; font-kerning: normal; font-feature-settings: &quot;kern&quot; 1, &quot;liga&quot; 1; letter-spacing:-0.4px;" data-final-font-size="31">
        <tspan x="-244.0" dy="28.52px">Security Analysis</tspan>
      </text>
      <rect id="ITEM_3_HEAD_FRAME" x="-244" y="-96" width="400" height="40" fill="none"/>
      <text id="ITEM_3_BODY" x="-244.0" y="-4.0" text-anchor="start" font-size="24" fill="var(--primary-text)" opacity="0.92" data-bg-id="ITEM_3_BG" style="font-size: 23px; font-family: 'Segoe UI Variable Text', 'Aptos', 'Inter', 'Segoe UI', Helvetica, Arial, sans-serif; font-weight: 400; font-kerning: normal; font-feature-settings: &quot;kern&quot; 1, &quot;liga&quot; 1;" data-final-font-size="23">
        <tspan x="-244.0" dy="28.13px">Unexplained activity treated as potential</tspan>
        <tspan x="-244.0" dy="26.45px">foreign surveillance or</tspan>
        <tspan x="-244.0" dy="26.45px">intelligence gathering</tspan>
      </text>
      <rect id="ITEM_3_BODY_FRAME" x="-244" y="-4" width="430" height="128" fill="none"/>
      <circle id="ITEM_3_PAD" cx="224" cy="-24" r="52" fill="var(--icon-pad-bg)" opacity="1" fill-opacity="0.9" stroke-width="2" stroke="var(--semantic-uncertain)" stroke-opacity="0.72" data-badge-layer="pad"/>
      <circle id="ITEM_3_PAD_INNER" cx="224" cy="-24" r="40.56" fill="var(--semantic-uncertain)" fill-opacity="0.12" stroke="none" data-badge-layer="tint"/>
      <circle cx="224" cy="-24" r="42" fill="none" stroke="var(--accent-3)" stroke-width="2.5" stroke-dasharray="6 4" display="none" data-suppressed-decoration="redundant-badge-ring"/>
      <g id="ITEM_3_ICON" transform="translate(182, -66)" data-icon-size="84" stroke-linecap="round" stroke-linejoin="round" data-badge-treatment="clean">
        <g transform="translate(-3.5593220338983054,-3.5593220338983063) scale(3.7966101694915255)" vector-effect="non-scaling-stroke" stroke-width="2.72" stroke-linecap="round" stroke-linejoin="round" stroke-opacity="1.0">
          <path d="M10 10h4" vector-effect="non-scaling-stroke" fill="none" stroke="#f1f5f9"/>
          <path d="M19 7V4a1 1 0 0 0-1-1h-2a1 1 0 0 0-1 1v3" vector-effect="non-scaling-stroke" fill="none" stroke="#f1f5f9"/>
          <path d="M20 21a2 2 0 0 0 2-2v-3.851c0-1.39-2-2.962-2-4.829V8a1 1 0 0 0-1-1h-4a1 1 0 0 0-1 1v11a2 2 0 0 0 2 2z" vector-effect="non-scaling-stroke" fill="none" stroke="#f1f5f9"/>
          <path d="M 22 16 L 2 16" vector-effect="non-scaling-stroke" fill="none" stroke="#f1f5f9"/>
          <path d="M4 21a2 2 0 0 1-2-2v-3.851c0-1.39 2-2.962 2-4.829V8a1 1 0 0 1 1-1h4a1 1 0 0 1 1 1v11a2 2 0 0 1-2 2z" vector-effect="non-scaling-stroke" fill="none" stroke="#f1f5f9"/>
          <path d="M9 7V4a1 1 0 0 0-1-1H6a1 1 0 0 0-1 1v3" vector-effect="non-scaling-stroke" fill="none" stroke="#f1f5f9"/>
        </g>
      </g>
    </g>
    <g transform="translate(1400, 808)">
      <rect id="ITEM_4_BG" x="-310" y="-126" width="620" height="252" rx="32" fill="var(--panel)" fill-opacity="0.95" stroke="var(--accent-4)" stroke-width="3" filter="url(#svgf18304b7-shadow)"/>
      <rect x="-310" y="-126" width="620" height="252" rx="18" fill="url(#svgf18304b7-universal-surface-sheen)" opacity="0.84"/>
      <rect x="-272" y="-92" width="18" height="184" rx="9" fill="var(--accent-4)" fill-opacity="0.22"/>
      <circle cx="-224" cy="-24" r="90" fill="none" stroke="var(--accent-4)" stroke-width="2.5" stroke-opacity="0.14"/>
      <text id="ITEM_4_HEAD" x="244.0" y="-96.0" text-anchor="end" font-weight="700" font-size="34" fill="var(--semantic-uncertain)" data-bg-id="ITEM_4_BG" fill-opacity="1.0" style="font-size: 31px; font-family: 'Segoe UI Variable Display', 'Aptos Display', 'Inter', 'Segoe UI', Helvetica, Arial, sans-serif; font-weight: 700; font-kerning: normal; font-feature-settings: &quot;kern&quot; 1, &quot;liga&quot; 1; letter-spacing:-0.4px;" data-final-font-size="31">
        <tspan x="244.0" dy="28.52px">Technical Anomalies</tspan>
      </text>
      <rect id="ITEM_4_HEAD_FRAME" x="-156" y="-96" width="400" height="40" fill="none"/>
      <text id="ITEM_4_BODY" x="274.0" y="-4.0" text-anchor="end" font-size="24" fill="var(--primary-text)" opacity="0.92" data-bg-id="ITEM_4_BG" style="font-size: 23px; font-family: 'Segoe UI Variable Text', 'Aptos', 'Inter', 'Segoe UI', Helvetica, Arial, sans-serif; font-weight: 400; font-kerning: normal; font-feature-settings: &quot;kern&quot; 1, &quot;liga&quot; 1;" data-final-font-size="23">
        <tspan x="274.0" dy="33.42px">Reports of equipment errors or atmospheric</tspan>
        <tspan x="274.0" dy="26.45px">effects near weapons facilities</tspan>
      </text>
      <rect id="ITEM_4_BODY_FRAME" x="-156" y="-4" width="430" height="128" fill="none"/>
      <circle id="ITEM_4_PAD" cx="-224" cy="-24" r="52" fill="var(--icon-pad-bg)" opacity="1" fill-opacity="0.9" stroke-width="2" stroke="var(--semantic-uncertain)" stroke-opacity="0.72" data-badge-layer="pad"/>
      <circle id="ITEM_4_PAD_INNER" cx="-224" cy="-24" r="40.56" fill="var(--semantic-uncertain)" fill-opacity="0.12" stroke="none" data-badge-layer="tint"/>
      <circle cx="-224" cy="-24" r="42" fill="none" stroke="var(--accent-4)" stroke-width="2.5" stroke-dasharray="6 4" display="none" data-suppressed-decoration="redundant-badge-ring"/>
      <g id="ITEM_4_ICON" transform="translate(-266, -66)" data-icon-size="84" stroke-linecap="round" stroke-linejoin="round" data-badge-treatment="clean">
        <g transform="translate(-3.5593220338983063,-3.5593220338983054) scale(3.7966101694915255)" vector-effect="non-scaling-stroke" stroke-width="2.72" stroke-linecap="round" stroke-linejoin="round" stroke-opacity="1.0">
          <path d="M18 12h2" vector-effect="non-scaling-stroke" fill="none" stroke="#f1f5f9"/>
          <path d="M18 16h2" vector-effect="non-scaling-stroke" fill="none" stroke="#f1f5f9"/>
          <path d="M18 20h2" vector-effect="non-scaling-stroke" fill="none" stroke="#f1f5f9"/>
          <path d="M18 4h2" vector-effect="non-scaling-stroke" fill="none" stroke="#f1f5f9"/>
          <path d="M18 8h2" vector-effect="non-scaling-stroke" fill="none" stroke="#f1f5f9"/>
          <path d="M4 12h2" vector-effect="non-scaling-stroke" fill="none" stroke="#f1f5f9"/>
          <path d="M4 16h2" vector-effect="non-scaling-stroke" fill="none" stroke="#f1f5f9"/>
          <path d="M4 20h2" vector-effect="non-scaling-stroke" fill="none" stroke="#f1f5f9"/>
          <path d="M4 4h2" vector-effect="non-scaling-stroke" fill="none" stroke="#f1f5f9"/>
          <path d="M4 8h2" vector-effect="non-scaling-stroke" fill="none" stroke="#f1f5f9"/>
          <path d="M8 2a2 2 0 0 0-2 2v16a2 2 0 0 0 2 2h8a2 2 0 0 0 2-2V4a2 2 0 0 0-2-2h-1.5c-.276 0-.494.227-.562.495a2 2 0 0 1-3.876 0C9.994 2.227 9.776 2 9.5 2z" vector-effect="non-scaling-stroke" fill="none" stroke="#f1f5f9"/>
        </g>
      </g>
    </g>
  </g>
  <text id="SOURCE_NOTE" x="134.0" y="1058.0" fill="var(--muted-text)" opacity="1" style="font-family: var(--font-family); font-size: 20px;">Source: National Archives Project BLUE BOOK</text>
  <text id="EDITORIAL_NOTE" x="1786.0" y="1058.0" fill="var(--semantic-uncertain)" opacity="1" style="font-family: var(--font-family); font-size: 20px;" text-anchor="end">Interpretations remain disputed; wording reflects source uncertainty.</text>
</svg>
