<?xml version='1.0' encoding='utf-8'?>
<svg xmlns="http://www.w3.org/2000/svg" width="1920" height="1080" viewBox="0 0 1920 1080" data-theme="light" data-semantic-intent="compare" data-relation-type="comparison" data-site-visual-identity="signal-cobalt">
  <style>
        @font-face {
            font-family: 'Inter';
            src: url('assets/fonts/Inter-Regular.ttf') format('truetype');
            font-weight: 400;
            font-style: normal;
            font-display: swap;
        }
        @font-face {
            font-family: 'Inter';
            src: url('assets/fonts/Inter-Bold.ttf') format('truetype');
            font-weight: 600;
            font-style: normal;
            font-display: swap;
        }
        @font-face {
            font-family: 'Inter';
            src: url('assets/fonts/Inter-Bold.ttf') format('truetype');
            font-weight: 800;
            font-style: normal;
            font-display: swap;
        }
        
:root {
    --background: #f8fafc;
    --panel: #ffffff;
    --primary-text: #0f172a;
    --muted-text: #64748b;
    --inverse-text: #ffffff;
    --border: #e2e8f0;
    --shadow-color: #000000;
    --icon-pad-bg: #1e293b;
    --art-glow: #0891b2;
    --art-glow-opacity: 0.10;
    --art-sheen: #ffffff;
    --art-sheen-opacity: 0.34;
    --art-shadow: #0f172a;
    --art-shadow-opacity: 0.14;
    --art-muted-line: #94a3b8;
    --art-panel-tint: #f1f5f9;
    --semantic-risk: #b91c1c;
    --semantic-warning: #c2410c;
    --semantic-uncertain: #a16207;
    --semantic-evidence: #1d4ed8;
    --semantic-claim: #6d28d9;
    --semantic-positive: #15803d;
    --semantic-outcome: #0e7490;
    --font-family: 'Inter', 'Segoe UI', 'Kalam', Roboto, Helvetica, Arial, sans-serif;
    --radius-xl: 16px;
    --font-family-headline: 'Segoe UI Variable Display', 'Aptos Display', 'Inter', 'Segoe UI', Helvetica, Arial, sans-serif;
    --font-family-body: 'Segoe UI Variable Text', 'Aptos', 'Inter', 'Segoe UI', Helvetica, Arial, sans-serif;
    --font-heading: var(--font-family-headline);
    --font-body: var(--font-family-body);
    --font-size-h1: 64px;
    --font-size-h2: 42px;
    --font-size-h3: 29px;
    --font-size-body: 21px;
    --font-size-caption: 17px;
    --secondary-text: var(--muted-text);
    --panel-border: var(--border);
    --font-weight-normal: 400;
    --font-weight-medium: 500;
    --font-weight-semibold: 600;
    --font-weight-bold: 700;
    --spacing-gutter-pct: 0.07;
    --spacing-top-pct: 0.15;
    --spacing-bottom-pct: 0.07;
    --spacing-title-y-pct: 0.055;
    --accent-1: #1d4ed8;
    --accent-2: #2563eb;
    --accent-3: #4f46e5;
    --accent-4: #6d28d9;
    --accent-5: #0369a1;
    --accent-6: #c2410c;
}
:root[data-theme="dark"] {
    --background: #0f172a;
    --panel: #1e293b;
    --primary-text: #f1f5f9;
    --muted-text: #94a3b8;
    --inverse-text: #0f172a;
    --border: #334155;
    --shadow-color: #000000;
    --icon-pad-bg: #1e293b;
    --art-glow: #7dd3fc;
    --art-glow-opacity: 0.18;
    --art-sheen: #ffffff;
    --art-sheen-opacity: 0.18;
    --art-shadow: #000000;
    --art-shadow-opacity: 0.28;
    --art-muted-line: #64748b;
    --art-panel-tint: #1e293b;
    --semantic-risk: #f87171;
    --semantic-warning: #fb923c;
    --semantic-uncertain: #fbbf24;
    --semantic-evidence: #60a5fa;
    --semantic-claim: #c084fc;
    --semantic-positive: #4ade80;
    --semantic-outcome: #22d3ee;
    --accent-1: #93c5fd;
    --accent-2: #60a5fa;
    --accent-3: #818cf8;
    --accent-4: #a78bfa;
    --accent-5: #38bdf8;
    --accent-6: #fb923c;
}
:root[data-theme="light"] {
    --background: #f8fafc;
    --panel: #ffffff;
    --primary-text: #0f172a;
    --muted-text: #64748b;
    --inverse-text: #ffffff;
    --border: #e2e8f0;
    --shadow-color: #000000;
    --icon-pad-bg: #1e293b;
    --art-glow: #0891b2;
    --art-glow-opacity: 0.10;
    --art-sheen: #ffffff;
    --art-sheen-opacity: 0.34;
    --art-shadow: #0f172a;
    --art-shadow-opacity: 0.14;
    --art-muted-line: #94a3b8;
    --art-panel-tint: #f1f5f9;
    --semantic-risk: #b91c1c;
    --semantic-warning: #c2410c;
    --semantic-uncertain: #a16207;
    --semantic-evidence: #1d4ed8;
    --semantic-claim: #6d28d9;
    --semantic-positive: #15803d;
    --semantic-outcome: #0e7490;
    --accent-1: #1d4ed8;
    --accent-2: #2563eb;
    --accent-3: #4f46e5;
    --accent-4: #6d28d9;
    --accent-5: #0369a1;
    --accent-6: #c2410c;
}</style>
  <rect x="0" y="0" width="1.92E+3" height="1.08E+3" fill="#252a34" stroke="none" id="programmatic_background"/>
  <line id="HEADER_DECOR" x1="960.0" x2="1080.0" y1="135.0" y2="135.0" stroke="var(--accent-1)" stroke-width="6" stroke-linecap="round"/>
  <defs>
    <pattern id="svgc32dc18e-napkin-hatch" patternUnits="userSpaceOnUse" width="12" height="12">
      <path d="M -3 12 L 12 -3 M 0 15 L 15 0" fill="none" stroke="var(--primary-text)" stroke-width="1" stroke-opacity="0.04"/>
    </pattern>
    <filter id="svgc32dc18e-soft-shadow" x="-30%" y="-30%" width="160%" height="160%">
      <feDropShadow dx="0" dy="4" stdDeviation="8" flood-color="#000000" flood-opacity="0.18"/>
    </filter>
    <radialGradient id="svgc32dc18e-universal-edge-vignette" cx="50%" cy="50%" r="72%">
      <stop offset="0%" stop-color="var(--background)" stop-opacity="0"/>
      <stop offset="72%" stop-color="var(--background)" stop-opacity="0.12"/>
      <stop offset="100%" stop-color="var(--primary-text)" stop-opacity="0.08"/>
    </radialGradient>
    <linearGradient id="svgc32dc18e-universal-surface-sheen" x1="0%" y1="0%" x2="100%" y2="100%">
      <stop offset="0%" stop-color="var(--art-sheen)" stop-opacity="var(--art-sheen-opacity)"/>
      <stop offset="46%" stop-color="var(--art-sheen)" stop-opacity="0.035"/>
      <stop offset="100%" stop-color="var(--art-panel-tint)" stop-opacity="0.14"/>
    </linearGradient>
    <radialGradient id="svgc32dc18e-universal-icon-aura" cx="50%" cy="42%" r="64%">
      <stop offset="0%" stop-color="var(--art-glow)" stop-opacity="var(--art-glow-opacity)"/>
      <stop offset="100%" stop-color="var(--background)" stop-opacity="0"/>
    </radialGradient>
    <linearGradient id="svgc32dc18e-tug-rope-sheen" x1="0%" y1="0%" x2="100%" y2="0%">
      <stop offset="0%" stop-color="var(--background)" stop-opacity="0"/>
      <stop offset="50%" stop-color="var(--inverse-text)" stop-opacity="0.16"/>
      <stop offset="100%" stop-color="var(--background)" stop-opacity="0"/>
    </linearGradient>
    <filter id="svgc32dc18e-text-glow" x="-20%" y="-20%" width="140%" height="140%">
      <feDropShadow dx="0" dy="0" stdDeviation="2" flood-color="#000000" flood-opacity="0.4"/>
    </filter>
    <filter id="svgc32dc18e-shadow" x="-30%" y="-30%" width="160%" height="160%">
      <feDropShadow dx="0" dy="2" stdDeviation="3" flood-color="#000000" flood-opacity="0.08"/>
      <feDropShadow dx="0" dy="6" stdDeviation="10" flood-color="#000000" flood-opacity="0.12"/>
    </filter>
    <marker id="svgc32dc18e-arrowhead" markerWidth="10" markerHeight="7" refX="9" refY="3.5" orient="auto" markerUnits="strokeWidth">
      <polygon points="0 0, 10 3.5, 0 7" fill="var(--muted-text)" opacity="0.6"/>
    </marker>
  </defs>
  <rect id="CANVAS_BG" width="100%" height="100%" fill="var(--background)"/>
  <rect width="100%" height="100%" fill="url(#svgc32dc18e-napkin-hatch)"/>
  <rect id="UNIVERSAL_EDGE_VIGNETTE" width="100%" height="100%" fill="url(#svgc32dc18e-universal-edge-vignette)" opacity="0.62"/>
  <text id="TITLE" x="960.0" y="59" text-anchor="middle" font-size="56" font-weight="800" fill="#0f172a" style="font-size: 69px; font-family: 'Segoe UI Variable Display', 'Aptos Display', 'Inter', 'Segoe UI', Helvetica, Arial, sans-serif; font-weight: 800; font-kerning: normal; font-feature-settings: &quot;kern&quot; 1, &quot;liga&quot; 1; letter-spacing:-1.2px;" data-final-font-size="69">
    <tspan x="960.0" dy="70.47px">Project Blue Book vs. Modern UAP Systems</tspan>
  </text>
  <rect id="TITLE_FRAME" x="134" y="59" width="1652" height="103" fill="none"/>
  <ellipse cx="960" cy="332" rx="236" ry="60" fill="var(--panel)" fill-opacity="0.48" opacity="0.32"/>
  <path d="M 170 322 Q 616 304 934 332" fill="none" stroke="var(--primary-text)" stroke-width="16" stroke-linecap="round" opacity="0.10"/>
  <path d="M 1750 322 Q 1304 304 986 332" fill="none" stroke="var(--primary-text)" stroke-width="16" stroke-linecap="round" opacity="0.10"/>
  <path d="M 210 322 Q 618 308 936 332" fill="none" stroke="var(--muted-text)" stroke-width="8" stroke-linecap="round" opacity="0.88"/>
  <path d="M 1710 322 Q 1302 308 984 332" fill="none" stroke="var(--muted-text)" stroke-width="8" stroke-linecap="round" opacity="0.88"/>
  <circle cx="960" cy="332" r="24" fill="var(--panel)" fill-opacity="0.94" stroke="var(--primary-text)" stroke-width="3"/>
  <path d="M 960 308 L 982 332 L 960 356 L 938 332 Z" fill="var(--primary-text)"/>
  <path d="M 960 356 L 960 666" fill="none" stroke="var(--primary-text)" stroke-width="12" stroke-linecap="round" opacity="0.10"/>
  <path d="M 960 356 L 960 666" fill="none" stroke="var(--muted-text)" stroke-width="6" stroke-linecap="round" opacity="0.78"/>
  <ellipse cx="960" cy="690" rx="236" ry="52" fill="var(--panel)" fill-opacity="0.42" opacity="0.28"/>
  <path d="M 170 690 Q 616 672 934 690" fill="none" stroke="var(--primary-text)" stroke-width="16" stroke-linecap="round" opacity="0.10"/>
  <path d="M 1750 690 Q 1304 672 986 690" fill="none" stroke="var(--primary-text)" stroke-width="16" stroke-linecap="round" opacity="0.10"/>
  <path d="M 210 690 Q 618 676 936 690" fill="none" stroke="var(--muted-text)" stroke-width="8" stroke-linecap="round" opacity="0.88"/>
  <path d="M 1710 690 Q 1302 676 984 690" fill="none" stroke="var(--muted-text)" stroke-width="8" stroke-linecap="round" opacity="0.88"/>
  <circle cx="960" cy="690" r="20" fill="var(--panel)" fill-opacity="0.94" stroke="var(--primary-text)" stroke-width="3"/>
  <path d="M 820 336 L 530 358" fill="none" stroke="var(--muted-text)" stroke-width="3" stroke-linecap="round" opacity="0.72"/>
  <circle cx="530" cy="358" r="6" fill="var(--accent-1)"/>
  <g transform="translate(410, 388)" filter="url(#svgc32dc18e-soft-shadow)">
    <path d="M 58 0 L 90 -28 L 136 -28 Q 146 -28 152 -18 L 162 0 Z" fill="var(--panel)" fill-opacity="0.95" stroke="var(--accent-1)" stroke-width="3"/>
    <rect id="ITEM_1_BG" x="-205" y="0" width="410" height="338" rx="24" fill="var(--panel)" fill-opacity="0.96" stroke="var(--accent-1)" stroke-width="3"/>
    <rect x="-176" y="14" width="324" height="8" rx="4" fill="var(--accent-1)" fill-opacity="0.42"/>
    <path d="M 72 28 L 176 28 L 150 312 L 82 312 Z" fill="var(--accent-1)" fill-opacity="0.07"/>
    <circle id="ITEM_1_PAD" cx="0" cy="78" r="42" fill="var(--icon-pad-bg)" stroke="var(--accent-1)" opacity="1" fill-opacity="0.9" stroke-width="2" stroke-opacity="0.72" data-badge-layer="pad"/>
    <circle id="ITEM_1_PAD_INNER" cx="0" cy="78" r="32.76" fill="var(--accent-1)" fill-opacity="0.12" stroke="none" data-badge-layer="tint"/>
    <circle cx="0" cy="78" r="32" fill="none" stroke="var(--accent-1)" stroke-width="2.25" stroke-dasharray="5 4" opacity="0.82" display="none" data-suppressed-decoration="redundant-badge-ring"/>
    <g id="ITEM_1_ICON" transform="translate(-31, 46)" data-icon-size="62" stroke-linecap="round" stroke-linejoin="round" data-badge-treatment="clean">
      <g transform="translate(-7.826666666666659,-6.613333333333331) scale(0.3033333333333333)" vector-effect="non-scaling-stroke" stroke-width="2.46" stroke-linecap="round" stroke-linejoin="round" stroke-opacity="1.0">
        <line x1="96" y1="128" x2="160" y2="128" fill="none" stroke="#f1f5f9" vector-effect="non-scaling-stroke"/>
        <line x1="96" y1="160" x2="160" y2="160" fill="none" stroke="#f1f5f9" vector-effect="non-scaling-stroke"/>
        <path d="M48,40H208a0,0,0,0,1,0,0V200a24,24,0,0,1-24,24H72a24,24,0,0,1-24-24V40A0,0,0,0,1,48,40Z" fill="none" stroke="#f1f5f9" vector-effect="non-scaling-stroke"/>
        <line x1="80" y1="24" x2="80" y2="56" fill="none" stroke="#f1f5f9" vector-effect="non-scaling-stroke"/>
        <line x1="128" y1="24" x2="128" y2="56" fill="none" stroke="#f1f5f9" vector-effect="non-scaling-stroke"/>
        <line x1="176" y1="24" x2="176" y2="56" fill="none" stroke="#f1f5f9" vector-effect="non-scaling-stroke"/>
      </g>
    </g>
    <text id="ITEM_1_HEAD" x="0.0" y="136.0" text-anchor="middle" font-size="38" font-weight="800" fill="var(--accent-1)" data-bg-id="ITEM_1_BG" data-max-lines="3" data-min-font-size="13" fill-opacity="1.0" style="font-size: 31px; font-family: 'Segoe UI Variable Display', 'Aptos Display', 'Inter', 'Segoe UI', Helvetica, Arial, sans-serif; font-weight: 700; font-kerning: normal; font-feature-settings: &quot;kern&quot; 1, &quot;liga&quot; 1; letter-spacing:-0.4px;" data-final-font-size="31">
      <tspan x="0.0" dy="41.52px">Evidence Source</tspan>
    </text>
    <rect id="ITEM_1_HEAD_FRAME" x="-166" y="136" width="332" height="66" fill="none"/>
    <text id="ITEM_1_BODY" x="0.0" y="202.0" text-anchor="middle" font-size="24" fill="var(--primary-text)" data-bg-id="ITEM_1_BG" style="font-size: 23px; font-family: 'Segoe UI Variable Text', 'Aptos', 'Inter', 'Segoe UI', Helvetica, Arial, sans-serif; font-weight: 400; font-kerning: normal; font-feature-settings: &quot;kern&quot; 1, &quot;liga&quot; 1;" data-final-font-size="23">
      <tspan x="0.0" dy="35.02px">Historical: Witness interviews</tspan>
      <tspan x="0.0" dy="26.45px">and pilot descriptions</tspan>
    </text>
    <rect id="ITEM_1_BODY_FRAME" x="-178" y="202" width="356" height="136" fill="none"/>
  </g>
  <path d="M 960 356 L 960 360" fill="none" stroke="var(--muted-text)" stroke-width="3" stroke-linecap="round" opacity="0.72"/>
  <circle cx="960" cy="360" r="6" fill="var(--accent-2)"/>
  <g transform="translate(960, 390)" filter="url(#svgc32dc18e-soft-shadow)">
    <path d="M -46 0 L -16 -28 L 16 -28 L 46 0 Z" fill="var(--panel)" fill-opacity="0.95" stroke="var(--accent-2)" stroke-width="3"/>
    <rect id="ITEM_2_BG" x="-205" y="0" width="410" height="338" rx="24" fill="var(--panel)" fill-opacity="0.96" stroke="var(--accent-2)" stroke-width="3"/>
    <rect x="-150" y="14" width="300" height="8" rx="4" fill="var(--accent-2)" fill-opacity="0.42"/>
    <path d="M -66 28 L 66 28 L 100 310 L -100 310 Z" fill="var(--accent-2)" fill-opacity="0.05"/>
    <circle id="ITEM_2_PAD" cx="0" cy="78" r="42" fill="var(--icon-pad-bg)" stroke="var(--accent-2)" opacity="1" fill-opacity="0.9" stroke-width="2" stroke-opacity="0.72" data-badge-layer="pad"/>
    <circle id="ITEM_2_PAD_INNER" cx="0" cy="78" r="32.76" fill="var(--accent-2)" fill-opacity="0.12" stroke="none" data-badge-layer="tint"/>
    <circle cx="0" cy="78" r="32" fill="none" stroke="var(--accent-2)" stroke-width="2.25" stroke-dasharray="5 4" opacity="0.82" display="none" data-suppressed-decoration="redundant-badge-ring"/>
    <g id="ITEM_2_ICON" transform="translate(-31, 46)" data-icon-size="62" stroke-linecap="round" stroke-linejoin="round" data-badge-treatment="clean">
      <g transform="translate(-4.536271186440677,-4.5362711864406755) scale(2.9613559322033898)" vector-effect="non-scaling-stroke" stroke-width="2.46" stroke-linecap="round" stroke-linejoin="round" stroke-opacity="1.0">
        <path d="M14 13V8.5C14 7 15 7 15 5a3 3 0 0 0-6 0c0 2 1 2 1 3.5V13" vector-effect="non-scaling-stroke" fill="none" stroke="#f1f5f9"/>
        <path d="M20 15.5a2.5 2.5 0 0 0-2.5-2.5h-11A2.5 2.5 0 0 0 4 15.5V17a1 1 0 0 0 1 1h14a1 1 0 0 0 1-1z" vector-effect="non-scaling-stroke" fill="none" stroke="#f1f5f9"/>
        <path d="M5 22h14" vector-effect="non-scaling-stroke" fill="none" stroke="#f1f5f9"/>
      </g>
    </g>
    <text id="ITEM_2_HEAD" x="0.0" y="136.0" text-anchor="middle" font-size="38" font-weight="800" fill="var(--accent-2)" data-bg-id="ITEM_2_BG" data-max-lines="3" data-min-font-size="13" fill-opacity="1.0" style="font-size: 31px; font-family: 'Segoe UI Variable Display', 'Aptos Display', 'Inter', 'Segoe UI', Helvetica, Arial, sans-serif; font-weight: 700; font-kerning: normal; font-feature-settings: &quot;kern&quot; 1, &quot;liga&quot; 1; letter-spacing:-0.4px;" data-final-font-size="31">
      <tspan x="0.0" dy="41.52px">Analysis Methodology</tspan>
    </text>
    <rect id="ITEM_2_HEAD_FRAME" x="-166" y="136" width="332" height="66" fill="none"/>
    <text id="ITEM_2_BODY" x="0.0" y="202.0" text-anchor="middle" font-size="24" fill="var(--primary-text)" data-bg-id="ITEM_2_BG" style="font-size: 23px; font-family: 'Segoe UI Variable Text', 'Aptos', 'Inter', 'Segoe UI', Helvetica, Arial, sans-serif; font-weight: 400; font-kerning: normal; font-feature-settings: &quot;kern&quot; 1, &quot;liga&quot; 1;" data-final-font-size="23">
      <tspan x="0.0" dy="35.02px">Historical: Case-by-case</tspan>
      <tspan x="0.0" dy="26.45px">classification of sightings</tspan>
    </text>
    <rect id="ITEM_2_BODY_FRAME" x="-178" y="202" width="356" height="136" fill="none"/>
  </g>
  <path d="M 1100 336 L 1390 358" fill="none" stroke="var(--muted-text)" stroke-width="3" stroke-linecap="round" opacity="0.72"/>
  <circle cx="1390" cy="358" r="6" fill="var(--accent-3)"/>
  <g transform="translate(1510, 388)" filter="url(#svgc32dc18e-soft-shadow)">
    <path d="M -58 0 L -90 -28 L -136 -28 Q -146 -28 -152 -18 L -162 0 Z" fill="var(--panel)" fill-opacity="0.95" stroke="var(--accent-3)" stroke-width="3"/>
    <rect id="ITEM_3_BG" x="-205" y="0" width="410" height="338" rx="24" fill="var(--panel)" fill-opacity="0.96" stroke="var(--accent-3)" stroke-width="3"/>
    <rect x="-148" y="14" width="324" height="8" rx="4" fill="var(--accent-3)" fill-opacity="0.42"/>
    <path d="M -72 28 L -176 28 L -150 312 L -82 312 Z" fill="var(--accent-3)" fill-opacity="0.07"/>
    <circle id="ITEM_3_PAD" cx="0" cy="78" r="42" fill="var(--icon-pad-bg)" stroke="var(--accent-3)" opacity="1" fill-opacity="0.9" stroke-width="2" stroke-opacity="0.72" data-badge-layer="pad"/>
    <circle id="ITEM_3_PAD_INNER" cx="0" cy="78" r="32.76" fill="var(--accent-3)" fill-opacity="0.12" stroke="none" data-badge-layer="tint"/>
    <circle cx="0" cy="78" r="32" fill="none" stroke="var(--accent-3)" stroke-width="2.25" stroke-dasharray="5 4" opacity="0.82" display="none" data-suppressed-decoration="redundant-badge-ring"/>
    <g id="ITEM_3_ICON" transform="translate(-31, 46)" data-icon-size="62" stroke-linecap="round" stroke-linejoin="round" data-badge-treatment="clean">
      <g transform="translate(-7.826666666666664,-7.826666666666668) scale(3.2355555555555555)" vector-effect="non-scaling-stroke" fill="#f1f5f9" fill-opacity="1.0" stroke="none">
        <path fill="#f1f5f9" d="M18 15h-2v2h2m0-6h-2v2h2m2 6h-8v-2h2v-2h-2v-2h2v-2h-2V9h8M10 7H8V5h2m0 6H8V9h2m0 6H8v-2h2m0 6H8v-2h2M6 7H4V5h2m0 6H4V9h2m0 6H4v-2h2m0 6H4v-2h2m6-10V3H2v18h20V7z" vector-effect="non-scaling-stroke" stroke="none"/>
      </g>
    </g>
    <text id="ITEM_3_HEAD" x="0.0" y="136.0" text-anchor="middle" font-size="38" font-weight="800" fill="var(--accent-3)" data-bg-id="ITEM_3_BG" data-max-lines="3" data-min-font-size="13" fill-opacity="1.0" style="font-size: 31px; font-family: 'Segoe UI Variable Display', 'Aptos Display', 'Inter', 'Segoe UI', Helvetica, Arial, sans-serif; font-weight: 700; font-kerning: normal; font-feature-settings: &quot;kern&quot; 1, &quot;liga&quot; 1; letter-spacing:-0.4px;" data-final-font-size="31">
      <tspan x="0.0" dy="41.52px">Limitation</tspan>
    </text>
    <rect id="ITEM_3_HEAD_FRAME" x="-166" y="136" width="332" height="66" fill="none"/>
    <text id="ITEM_3_BODY" x="0.0" y="202.0" text-anchor="middle" font-size="24" fill="var(--primary-text)" data-bg-id="ITEM_3_BG" style="font-size: 23px; font-family: 'Segoe UI Variable Text', 'Aptos', 'Inter', 'Segoe UI', Helvetica, Arial, sans-serif; font-weight: 400; font-kerning: normal; font-feature-settings: &quot;kern&quot; 1, &quot;liga&quot; 1;" data-final-font-size="23">
      <tspan x="0.0" dy="35.02px">Historical: Subjective human</tspan>
      <tspan x="0.0" dy="26.45px">perception and stress</tspan>
    </text>
    <rect id="ITEM_3_BODY_FRAME" x="-178" y="202" width="356" height="136" fill="none"/>
  </g>
  <path d="M 820 694 L 530 696" fill="none" stroke="var(--muted-text)" stroke-width="3" stroke-linecap="round" opacity="0.72"/>
  <circle cx="530" cy="696" r="6" fill="var(--accent-4)"/>
  <g transform="translate(410, 726)" filter="url(#svgc32dc18e-soft-shadow)">
    <path d="M 58 0 L 90 -28 L 136 -28 Q 146 -28 152 -18 L 162 0 Z" fill="var(--panel)" fill-opacity="0.95" stroke="var(--accent-4)" stroke-width="3"/>
    <rect id="ITEM_4_BG" x="-205" y="0" width="410" height="338" rx="24" fill="var(--panel)" fill-opacity="0.96" stroke="var(--accent-4)" stroke-width="3"/>
    <rect x="-176" y="14" width="324" height="8" rx="4" fill="var(--accent-4)" fill-opacity="0.42"/>
    <path d="M 72 28 L 176 28 L 150 312 L 82 312 Z" fill="var(--accent-4)" fill-opacity="0.07"/>
    <circle id="ITEM_4_PAD" cx="0" cy="78" r="42" fill="var(--icon-pad-bg)" stroke="var(--accent-1)" opacity="1" fill-opacity="0.9" stroke-width="2" stroke-opacity="0.72" data-badge-layer="pad"/>
    <circle id="ITEM_4_PAD_INNER" cx="0" cy="78" r="32.76" fill="var(--accent-1)" fill-opacity="0.12" stroke="none" data-badge-layer="tint"/>
    <circle cx="0" cy="78" r="32" fill="none" stroke="var(--accent-4)" stroke-width="2.25" stroke-dasharray="5 4" opacity="0.82" display="none" data-suppressed-decoration="redundant-badge-ring"/>
    <g id="ITEM_4_ICON" transform="translate(-31, 46)" data-icon-size="62" stroke-linecap="round" stroke-linejoin="round" data-badge-treatment="clean">
      <g transform="translate(-7.826666666666664,-7.826666666666664) scale(3.2355555555555555)" vector-effect="non-scaling-stroke" stroke-width="2.46" stroke-linecap="round" stroke-linejoin="round" stroke-opacity="1.0">
        <path d="M4 10a7.31 7.31 0 0 0 10 10Z" vector-effect="non-scaling-stroke" fill="none" stroke="#f1f5f9"/>
        <path d="m9 15 3-3" vector-effect="non-scaling-stroke" fill="none" stroke="#f1f5f9"/>
        <path d="M17 13a6 6 0 0 0-6-6" vector-effect="non-scaling-stroke" fill="none" stroke="#f1f5f9"/>
        <path d="M21 13A10 10 0 0 0 11 3" vector-effect="non-scaling-stroke" fill="none" stroke="#f1f5f9"/>
      </g>
    </g>
    <text id="ITEM_4_HEAD" x="0.0" y="136.0" text-anchor="middle" font-size="38" font-weight="800" fill="var(--accent-1)" data-bg-id="ITEM_4_BG" data-max-lines="3" data-min-font-size="13" fill-opacity="1.0" style="font-size: 31px; font-family: 'Segoe UI Variable Display', 'Aptos Display', 'Inter', 'Segoe UI', Helvetica, Arial, sans-serif; font-weight: 700; font-kerning: normal; font-feature-settings: &quot;kern&quot; 1, &quot;liga&quot; 1; letter-spacing:-0.4px;" data-final-font-size="31">
      <tspan x="0.0" dy="41.52px">Modern Evidence Source</tspan>
    </text>
    <rect id="ITEM_4_HEAD_FRAME" x="-166" y="136" width="332" height="66" fill="none"/>
    <text id="ITEM_4_BODY" x="0.0" y="202.0" text-anchor="middle" font-size="24" fill="var(--primary-text)" data-bg-id="ITEM_4_BG" style="font-size: 23px; font-family: 'Segoe UI Variable Text', 'Aptos', 'Inter', 'Segoe UI', Helvetica, Arial, sans-serif; font-weight: 400; font-kerning: normal; font-feature-settings: &quot;kern&quot; 1, &quot;liga&quot; 1;" data-final-font-size="23">
      <tspan x="0.0" dy="35.02px">Contemporary: Digital imagery,</tspan>
      <tspan x="0.0" dy="26.45px">infrared sensors, and telemetry</tspan>
    </text>
    <rect id="ITEM_4_BODY_FRAME" x="-178" y="202" width="356" height="136" fill="none"/>
  </g>
  <path d="M 960 710 L 960 698" fill="none" stroke="var(--muted-text)" stroke-width="3" stroke-linecap="round" opacity="0.72"/>
  <circle cx="960" cy="698" r="6" fill="var(--accent-5)"/>
  <g transform="translate(960, 728)" filter="url(#svgc32dc18e-soft-shadow)">
    <path d="M -46 0 L -16 -28 L 16 -28 L 46 0 Z" fill="var(--panel)" fill-opacity="0.95" stroke="var(--accent-5)" stroke-width="3"/>
    <rect id="ITEM_5_BG" x="-205" y="0" width="410" height="338" rx="24" fill="var(--panel)" fill-opacity="0.96" stroke="var(--accent-5)" stroke-width="3"/>
    <rect x="-150" y="14" width="300" height="8" rx="4" fill="var(--accent-5)" fill-opacity="0.42"/>
    <path d="M -66 28 L 66 28 L 100 310 L -100 310 Z" fill="var(--accent-5)" fill-opacity="0.05"/>
    <circle id="ITEM_5_PAD" cx="0" cy="78" r="42" fill="var(--icon-pad-bg)" stroke="var(--accent-2)" opacity="1" fill-opacity="0.9" stroke-width="2" stroke-opacity="0.72" data-badge-layer="pad"/>
    <circle id="ITEM_5_PAD_INNER" cx="0" cy="78" r="32.76" fill="var(--accent-2)" fill-opacity="0.12" stroke="none" data-badge-layer="tint"/>
    <circle cx="0" cy="78" r="32" fill="none" stroke="var(--accent-5)" stroke-width="2.25" stroke-dasharray="5 4" opacity="0.82" display="none" data-suppressed-decoration="redundant-badge-ring"/>
    <g id="ITEM_5_ICON" transform="translate(-31, 46)" data-icon-size="62" stroke-linecap="round" stroke-linejoin="round" data-badge-treatment="clean">
      <g transform="translate(-4.5362711864406755,-4.5362711864406755) scale(2.9613559322033898)" vector-effect="non-scaling-stroke" stroke-width="2.46" stroke-linecap="round" stroke-linejoin="round" stroke-opacity="1.0">
        <rect width="20" height="8" x="2" y="2" rx="2" ry="2" vector-effect="non-scaling-stroke" fill="none" stroke="#f1f5f9"/>
        <rect width="20" height="8" x="2" y="14" rx="2" ry="2" vector-effect="non-scaling-stroke" fill="none" stroke="#f1f5f9"/>
        <line x1="6" x2="6.01" y1="6" y2="6" vector-effect="non-scaling-stroke" fill="none" stroke="#f1f5f9"/>
        <line x1="6" x2="6.01" y1="18" y2="18" vector-effect="non-scaling-stroke" fill="none" stroke="#f1f5f9"/>
      </g>
    </g>
    <text id="ITEM_5_HEAD" x="0.0" y="136.0" text-anchor="middle" font-size="38" font-weight="800" fill="var(--accent-2)" data-bg-id="ITEM_5_BG" data-max-lines="3" data-min-font-size="13" fill-opacity="1.0" style="font-size: 31px; font-family: 'Segoe UI Variable Display', 'Aptos Display', 'Inter', 'Segoe UI', Helvetica, Arial, sans-serif; font-weight: 700; font-kerning: normal; font-feature-settings: &quot;kern&quot; 1, &quot;liga&quot; 1; letter-spacing:-0.4px;" data-final-font-size="31">
      <tspan x="0.0" dy="41.52px">Modern Analysis Method</tspan>
    </text>
    <rect id="ITEM_5_HEAD_FRAME" x="-166" y="136" width="332" height="66" fill="none"/>
    <text id="ITEM_5_BODY" x="0.0" y="202.0" text-anchor="middle" font-size="24" fill="var(--primary-text)" data-bg-id="ITEM_5_BG" style="font-size: 23px; font-family: 'Segoe UI Variable Text', 'Aptos', 'Inter', 'Segoe UI', Helvetica, Arial, sans-serif; font-weight: 400; font-kerning: normal; font-feature-settings: &quot;kern&quot; 1, &quot;liga&quot; 1;" data-final-font-size="23">
      <tspan x="0.0" dy="35.02px">Contemporary: Multi-sensor</tspan>
      <tspan x="0.0" dy="26.45px">analysis and attribution</tspan>
    </text>
    <rect id="ITEM_5_BODY_FRAME" x="-178" y="202" width="356" height="136" fill="none"/>
  </g>
  <path d="M 1100 694 L 1390 696" fill="none" stroke="var(--muted-text)" stroke-width="3" stroke-linecap="round" opacity="0.72"/>
  <circle cx="1390" cy="696" r="6" fill="var(--accent-6)"/>
  <g transform="translate(1510, 726)" filter="url(#svgc32dc18e-soft-shadow)">
    <path d="M -58 0 L -90 -28 L -136 -28 Q -146 -28 -152 -18 L -162 0 Z" fill="var(--panel)" fill-opacity="0.95" stroke="var(--accent-6)" stroke-width="3"/>
    <rect id="ITEM_6_BG" x="-205" y="0" width="410" height="338" rx="24" fill="var(--panel)" fill-opacity="0.96" stroke="var(--accent-6)" stroke-width="3"/>
    <rect x="-148" y="14" width="324" height="8" rx="4" fill="var(--accent-6)" fill-opacity="0.42"/>
    <path d="M -72 28 L -176 28 L -150 312 L -82 312 Z" fill="var(--accent-6)" fill-opacity="0.07"/>
    <circle id="ITEM_6_PAD" cx="0" cy="78" r="42" fill="var(--icon-pad-bg)" stroke="var(--accent-6)" opacity="1" fill-opacity="0.9" stroke-width="2" stroke-opacity="0.72" data-badge-layer="pad"/>
    <circle id="ITEM_6_PAD_INNER" cx="0" cy="78" r="32.76" fill="var(--accent-6)" fill-opacity="0.12" stroke="none" data-badge-layer="tint"/>
    <circle cx="0" cy="78" r="32" fill="none" stroke="var(--accent-6)" stroke-width="2.25" stroke-dasharray="5 4" opacity="0.82" display="none" data-suppressed-decoration="redundant-badge-ring"/>
    <g id="ITEM_6_ICON" transform="translate(-31, 46)" data-icon-size="62" stroke-linecap="round" stroke-linejoin="round" data-badge-treatment="clean">
      <g transform="translate(-17.75906976744186,-17.759069767441858) scale(4.0632558139534884)" vector-effect="non-scaling-stroke" stroke-width="2.46" stroke-linecap="round" stroke-linejoin="round" stroke-opacity="1.0">
        <path d="M8 8a3.5 3 0 0 1 3.5 -3h1a3.5 3 0 0 1 3.5 3a3 3 0 0 1 -2 3a3 4 0 0 0 -2 4" vector-effect="non-scaling-stroke" fill="none" stroke="#f1f5f9"/>
        <path d="M12 19l0 .01" vector-effect="non-scaling-stroke" fill="none" stroke="#f1f5f9"/>
      </g>
    </g>
    <text id="ITEM_6_HEAD" x="0.0" y="136.0" text-anchor="middle" font-size="38" font-weight="800" fill="var(--accent-6)" data-bg-id="ITEM_6_BG" data-max-lines="3" data-min-font-size="13" fill-opacity="1.0" style="font-size: 31px; font-family: 'Segoe UI Variable Display', 'Aptos Display', 'Inter', 'Segoe UI', Helvetica, Arial, sans-serif; font-weight: 700; font-kerning: normal; font-feature-settings: &quot;kern&quot; 1, &quot;liga&quot; 1; letter-spacing:-0.4px;" data-final-font-size="31">
      <tspan x="0.0" dy="41.52px">Modern Limitation</tspan>
    </text>
    <rect id="ITEM_6_HEAD_FRAME" x="-166" y="136" width="332" height="66" fill="none"/>
    <text id="ITEM_6_BODY" x="0.0" y="202.0" text-anchor="middle" font-size="24" fill="var(--primary-text)" data-bg-id="ITEM_6_BG" style="font-size: 23px; font-family: 'Segoe UI Variable Text', 'Aptos', 'Inter', 'Segoe UI', Helvetica, Arial, sans-serif; font-weight: 400; font-kerning: normal; font-feature-settings: &quot;kern&quot; 1, &quot;liga&quot; 1;" data-final-font-size="23">
      <tspan x="0.0" dy="35.02px">Contemporary: Sensor gaps</tspan>
      <tspan x="0.0" dy="26.45px">and missing context</tspan>
    </text>
    <rect id="ITEM_6_BODY_FRAME" x="-178" y="202" width="356" height="136" fill="none"/>
  </g>
  <text id="SOURCE_NOTE" x="134.0" y="1058.0" fill="var(--muted-text)" opacity="1" style="font-family: var(--font-family); font-size: 20px;">Source: National Archives Project BLUE BOOK</text>
</svg>
